<?plantuml 1.2026.1?><svg xmlns="http://www.w3.org/2000/svg" xmlns:xlink="http://www.w3.org/1999/xlink" contentStyleType="text/css" data-diagram-type="DESCRIPTION" height="1448px" preserveAspectRatio="none" style="width:3169px;height:1448px;background:#FFFFFF;" version="1.1" viewBox="0 0 3169 1448" width="3169px" zoomAndPan="magnify"><title>The Firm &#8212; Control Plane Runtime Dispatch</title><defs/><g><g class="title" data-source-line="2"><text fill="#000000" font-family="sans-serif" font-size="14" font-weight="bold" lengthAdjust="spacing" textLength="345.4199" x="1404.8207" y="22.9951">The Firm &#8212; Control Plane Runtime Dispatch</text></g><!--cluster Persistent state--><g class="cluster" data-qualified-name="Persistent state" data-source-line="23" id="ent0002"><rect fill="#F8FAFC" height="523" rx="6" ry="6" style="stroke:#374151;stroke-width:1;" width="572.53" x="870.82" y="183.9769"/><text fill="#000000" font-family="sans-serif" font-size="14" font-weight="bold" lengthAdjust="spacing" textLength="126.5059" x="1093.8321" y="198.972">Persistent state</text></g><!--cluster Control plane--><g class="cluster" data-qualified-name="Control plane" data-source-line="30" id="ent0007"><rect fill="#F8FAFC" height="512" rx="6" ry="6" style="stroke:#374151;stroke-width:1;" width="1835.27" x="1250.38" y="730.9769"/><text fill="#000000" font-family="sans-serif" font-size="14" font-weight="bold" lengthAdjust="spacing" textLength="106.4766" x="2114.7767" y="745.972">Control plane</text></g><!--cluster Runtime--><g class="cluster" data-qualified-name="Runtime" data-source-line="38" id="ent0013"><rect fill="#F8FAFC" height="185" rx="6" ry="6" style="stroke:#374151;stroke-width:1;" width="564.22" x="7" y="312.9769"/><text fill="#000000" font-family="sans-serif" font-size="14" font-weight="bold" lengthAdjust="spacing" textLength="66.2881" x="255.966" y="327.972">Runtime</text></g><!--entity run_state--><g class="entity" data-qualified-name="Persistent state.run_state" data-source-line="24" id="ent0003"><rect fill="#FFFFFF" height="182.9688" rx="6" ry="6" style="stroke:#374151;stroke-width:0.5;" width="151.6602" x="886.82" y="508.4969"/><text fill="#000000" font-family="sans-serif" font-size="14" lengthAdjust="spacing" textLength="131.6602" x="896.82" y="531.492">.firm/run-state.yml</text><text fill="#000000" font-family="sans-serif" font-size="14" lengthAdjust="spacing" textLength="108.8418" x="908.2292" y="547.7889">engagement_id</text><text fill="#000000" font-family="sans-serif" font-size="14" lengthAdjust="spacing" textLength="42.2461" x="941.527" y="564.0857">phase</text><text fill="#000000" font-family="sans-serif" font-size="14" lengthAdjust="spacing" textLength="27.125" x="949.0876" y="580.3826">unit</text><text fill="#000000" font-family="sans-serif" font-size="14" lengthAdjust="spacing" textLength="88.8809" x="918.2096" y="596.6795">owner_office</text><text fill="#000000" font-family="sans-serif" font-size="14" lengthAdjust="spacing" textLength="129.9102" x="897.695" y="612.9764">participating_roles</text><text fill="#000000" font-family="sans-serif" font-size="14" lengthAdjust="spacing" textLength="68.5439" x="928.3781" y="629.2732">next_step</text><text fill="#000000" font-family="sans-serif" font-size="14" lengthAdjust="spacing" textLength="123.9766" x="900.6618" y="645.5701">required_artifacts</text><text fill="#000000" font-family="sans-serif" font-size="14" lengthAdjust="spacing" textLength="58.8096" x="933.2453" y="661.867">blockers</text><text fill="#000000" font-family="sans-serif" font-size="14" lengthAdjust="spacing" textLength="59.0762" x="933.112" y="678.1639">history[]</text></g><!--entity beads--><g class="entity" data-qualified-name="Persistent state.beads" data-source-line="25" id="ent0004"><rect fill="#FFFFFF" height="117.7813" rx="6" ry="6" style="stroke:#374151;stroke-width:0.5;" width="148.8232" x="888.24" y="356.0869"/><text fill="#000000" font-family="sans-serif" font-size="14" lengthAdjust="spacing" textLength="128.8232" x="898.24" y="379.082">Beads issue graph</text><text fill="#000000" font-family="sans-serif" font-size="14" lengthAdjust="spacing" textLength="67.7988" x="928.7522" y="395.3789">readiness</text><text fill="#000000" font-family="sans-serif" font-size="14" lengthAdjust="spacing" textLength="97.7402" x="913.7815" y="411.6757">dependencies</text><text fill="#000000" font-family="sans-serif" font-size="14" lengthAdjust="spacing" textLength="59.3428" x="932.9802" y="427.9726">claiming</text><text fill="#000000" font-family="sans-serif" font-size="14" lengthAdjust="spacing" textLength="58.8096" x="933.2468" y="444.2695">blockers</text><text fill="#000000" font-family="sans-serif" font-size="14" lengthAdjust="spacing" textLength="50.6885" x="937.3074" y="460.5664">closure</text></g><!--entity repo--><g class="entity" data-qualified-name="Persistent state.repo" data-source-line="26" id="ent0005"><rect fill="#FFFFFF" height="101.4844" rx="6" ry="6" style="stroke:#374151;stroke-width:0.5;" width="162.9941" x="1264.35" y="404.2369"/><text fill="#000000" font-family="sans-serif" font-size="14" lengthAdjust="spacing" textLength="142.9941" x="1274.35" y="427.232">Repository evidence</text><text fill="#000000" font-family="sans-serif" font-size="14" lengthAdjust="spacing" textLength="57.7021" x="1316.996" y="443.5289">artifacts</text><text fill="#000000" font-family="sans-serif" font-size="14" lengthAdjust="spacing" textLength="60.9287" x="1315.3827" y="459.8257">handoffs</text><text fill="#000000" font-family="sans-serif" font-size="14" lengthAdjust="spacing" textLength="55.9111" x="1317.8915" y="476.1226">verdicts</text><text fill="#000000" font-family="sans-serif" font-size="14" lengthAdjust="spacing" textLength="68.5303" x="1311.5819" y="492.4195">state files</text></g><!--entity dolt--><g class="entity" data-qualified-name="Persistent state.dolt" data-source-line="27" id="ent0006"><rect fill="#FFFFFF" height="101.4844" rx="6" ry="6" style="stroke:#374151;stroke-width:0.5;" width="135.3154" x="894.99" y="219.2369"/><text fill="#000000" font-family="sans-serif" font-size="14" lengthAdjust="spacing" textLength="107.8232" x="908.7361" y="242.232">Dolt audit truth</text><text fill="#000000" font-family="sans-serif" font-size="14" lengthAdjust="spacing" textLength="65.0029" x="930.1463" y="258.5289">decisions</text><text fill="#000000" font-family="sans-serif" font-size="14" lengthAdjust="spacing" textLength="60.9287" x="932.1834" y="274.8257">handoffs</text><text fill="#000000" font-family="sans-serif" font-size="14" lengthAdjust="spacing" textLength="94.5137" x="915.3909" y="291.1226">evidence refs</text><text fill="#000000" font-family="sans-serif" font-size="14" lengthAdjust="spacing" textLength="115.3154" x="904.99" y="307.4195">workflow history</text></g><!--entity dispatcher--><g class="entity" data-qualified-name="Control plane.dispatcher" data-source-line="31" id="ent0008"><rect fill="#FFFFFF" height="101.4844" rx="6" ry="6" style="stroke:#374151;stroke-width:0.5;" width="158.9404" x="1266.38" y="766.2369"/><text fill="#000000" font-family="sans-serif" font-size="14" lengthAdjust="spacing" textLength="75.8584" x="1307.921" y="789.232">Dispatcher</text><text fill="#000000" font-family="sans-serif" font-size="14" lengthAdjust="spacing" textLength="100.3037" x="1295.6984" y="805.5289">read run-state</text><text fill="#000000" font-family="sans-serif" font-size="14" lengthAdjust="spacing" textLength="131.0723" x="1280.3141" y="821.8257">inspect issue state</text><text fill="#000000" font-family="sans-serif" font-size="14" lengthAdjust="spacing" textLength="112.8955" x="1289.4025" y="838.1226">inspect artifacts</text><text fill="#000000" font-family="sans-serif" font-size="14" lengthAdjust="spacing" textLength="138.9404" x="1276.38" y="854.4195">classify current unit</text></g><!--entity validator--><g class="entity" data-qualified-name="Control plane.validator" data-source-line="32" id="ent0009"><rect fill="#FFFFFF" height="117.7813" rx="6" ry="6" style="stroke:#374151;stroke-width:0.5;" width="178.4639" x="1789.7" y="853.0869"/><text fill="#000000" font-family="sans-serif" font-size="14" lengthAdjust="spacing" textLength="99.9004" x="1828.9817" y="876.082">Gate validator</text><text fill="#000000" font-family="sans-serif" font-size="14" lengthAdjust="spacing" textLength="95.7236" x="1831.0701" y="892.3789">artifact exists</text><text fill="#000000" font-family="sans-serif" font-size="14" lengthAdjust="spacing" textLength="131.1338" x="1813.365" y="908.6757">artifact non-empty</text><text fill="#000000" font-family="sans-serif" font-size="14" lengthAdjust="spacing" textLength="98.9502" x="1829.4568" y="924.9726">handoff exists</text><text fill="#000000" font-family="sans-serif" font-size="14" lengthAdjust="spacing" textLength="158.4639" x="1799.7" y="941.2695">issue state compatible</text><text fill="#000000" font-family="sans-serif" font-size="14" lengthAdjust="spacing" textLength="115.8418" x="1821.011" y="957.5664">verdict recorded</text></g><!--entity office_mapper--><g class="entity" data-qualified-name="Control plane.office_mapper" data-source-line="33" id="ent0010"><rect fill="#FFFFFF" height="134.0781" rx="6" ry="6" style="stroke:#374151;stroke-width:0.5;" width="248.1221" x="1754.87" y="1092.9369"/><text fill="#000000" font-family="sans-serif" font-size="14" lengthAdjust="spacing" textLength="99.8867" x="1828.9877" y="1115.932">Office mapper</text><text fill="#000000" font-family="sans-serif" font-size="14" lengthAdjust="spacing" textLength="192.7666" x="1782.5477" y="1132.2289">intake -&gt; Product/Workflow</text><text fill="#000000" font-family="sans-serif" font-size="14" lengthAdjust="spacing" textLength="179.2793" x="1789.2914" y="1148.5257">discovery -&gt; Architecture</text><text fill="#000000" font-family="sans-serif" font-size="14" lengthAdjust="spacing" textLength="158.4502" x="1799.7059" y="1164.8226">design -&gt; Architecture</text><text fill="#000000" font-family="sans-serif" font-size="14" lengthAdjust="spacing" textLength="144.1084" x="1806.8768" y="1181.1195">build -&gt; Engineering</text><text fill="#000000" font-family="sans-serif" font-size="14" lengthAdjust="spacing" textLength="86.0371" x="1835.9125" y="1197.4164">verify -&gt; QA</text><text fill="#000000" font-family="sans-serif" font-size="14" lengthAdjust="spacing" textLength="228.1221" x="1764.87" y="1213.7132">close -&gt; QA/Release + Workflow</text></g><!--entity transition_engine--><g class="entity" data-qualified-name="Control plane.transition_engine" data-source-line="34" id="ent0011"><rect fill="#FFFFFF" height="101.4844" rx="6" ry="6" style="stroke:#374151;stroke-width:0.5;" width="214.7012" x="2226.24" y="972.2369"/><text fill="#000000" font-family="sans-serif" font-size="14" lengthAdjust="spacing" textLength="121.96" x="2272.6106" y="995.232">Transition engine</text><text fill="#000000" font-family="sans-serif" font-size="14" lengthAdjust="spacing" textLength="158.3408" x="2254.4202" y="1011.5289">actionable -&gt; dispatch</text><text fill="#000000" font-family="sans-serif" font-size="14" lengthAdjust="spacing" textLength="192.2197" x="2237.4807" y="1027.8257">complete -&gt; next legal unit</text><text fill="#000000" font-family="sans-serif" font-size="14" lengthAdjust="spacing" textLength="194.7012" x="2236.24" y="1044.1226">blocked -&gt; inject escalation</text><text fill="#000000" font-family="sans-serif" font-size="14" lengthAdjust="spacing" textLength="125.1113" x="2271.0349" y="1060.4195">stalled -&gt; resume</text></g><!--entity transport_prep--><g class="entity" data-qualified-name="Control plane.transport_prep" data-source-line="35" id="ent0012"><rect fill="#FFFFFF" height="117.7813" rx="6" ry="6" style="stroke:#374151;stroke-width:0.5;" width="238.292" x="2831.36" y="964.0869"/><text fill="#000000" font-family="sans-serif" font-size="14" lengthAdjust="spacing" textLength="104.3438" x="2898.3341" y="987.082">Transport prep</text><text fill="#000000" font-family="sans-serif" font-size="14" lengthAdjust="spacing" textLength="218.292" x="2841.36" y="1003.3789">build task-tool compatible calls</text><text fill="#000000" font-family="sans-serif" font-size="14" lengthAdjust="spacing" textLength="164.582" x="2868.215" y="1019.6757">shared context packets</text><text fill="#000000" font-family="sans-serif" font-size="14" lengthAdjust="spacing" textLength="140.5469" x="2880.2326" y="1035.9726">assignment packets</text><text fill="#000000" font-family="sans-serif" font-size="14" lengthAdjust="spacing" textLength="195.5283" x="2852.7418" y="1052.2695">depends_on and wave hints</text><text fill="#000000" font-family="sans-serif" font-size="14" lengthAdjust="spacing" textLength="97.9043" x="2901.5538" y="1068.5664">isolation hints</text></g><!--entity omp--><g class="entity" data-qualified-name="Runtime.omp" data-source-line="39" id="ent0014"><rect fill="#FFFFFF" height="85.1875" rx="6" ry="6" style="stroke:#374151;stroke-width:0.5;" width="158.7422" x="23" y="384.3869"/><text fill="#000000" font-family="sans-serif" font-size="14" lengthAdjust="spacing" textLength="91.123" x="56.8096" y="407.382">OMP runtime</text><text fill="#000000" font-family="sans-serif" font-size="14" lengthAdjust="spacing" textLength="47.7354" x="78.5034" y="423.6789">agents</text><text fill="#000000" font-family="sans-serif" font-size="14" lengthAdjust="spacing" textLength="33.8037" x="85.4692" y="439.9757">tools</text><text fill="#000000" font-family="sans-serif" font-size="14" lengthAdjust="spacing" textLength="138.7422" x="33" y="456.2726">interactive sessions</text></g><!--entity active_unit--><g class="entity" data-qualified-name="Runtime.active_unit" data-source-line="40" id="ent0015"><rect fill="#FFFFFF" height="134.0781" rx="6" ry="6" style="stroke:#374151;stroke-width:0.5;" width="168.4766" x="386.74" y="347.9369"/><text fill="#000000" font-family="sans-serif" font-size="14" lengthAdjust="spacing" textLength="148.4766" x="396.74" y="370.932">Active unit execution</text><text fill="#000000" font-family="sans-serif" font-size="14" lengthAdjust="spacing" textLength="43.5518" x="449.2024" y="387.2289">intake</text><text fill="#000000" font-family="sans-serif" font-size="14" lengthAdjust="spacing" textLength="67.2725" x="437.3421" y="403.5257">discovery</text><text fill="#000000" font-family="sans-serif" font-size="14" lengthAdjust="spacing" textLength="46.4434" x="447.7566" y="419.8226">design</text><text fill="#000000" font-family="sans-serif" font-size="14" lengthAdjust="spacing" textLength="34.4258" x="453.7654" y="436.1195">build</text><text fill="#000000" font-family="sans-serif" font-size="14" lengthAdjust="spacing" textLength="39.7578" x="451.0994" y="452.4164">verify</text><text fill="#000000" font-family="sans-serif" font-size="14" lengthAdjust="spacing" textLength="36.0596" x="452.9485" y="468.7132">close</text></g><g class="entity" data-qualified-name="GMN35" data-source-line="65" id="ent0036"><path d="M1181.08,133.8469 L1181.08,162.1125 A6,6 0 0 0 1187.08,168.1125 L1504.6269,168.1125 A6,6 0 0 0 1510.6269,162.1125 L1510.6269,137.8469 L1500.6269,127.8469 L1187.08,127.8469 A6,6 0 0 0 1181.08,133.8469" fill="#FFF7D6" style="stroke:#D6B656;stroke-width:0.5;"/><path d="M1500.6269,127.8469 L1500.6269,134.8469 A3,3 0 0 0 1503.6269,137.8469 L1510.6269,137.8469 L1500.6269,127.8469" fill="#FFF7D6" style="stroke:#D6B656;stroke-width:1;"/><text fill="#000000" font-family="sans-serif" font-size="13" lengthAdjust="spacing" textLength="308.5469" x="1187.08" y="144.9138">The runtime should prefer mechanical dispatch</text><text fill="#000000" font-family="sans-serif" font-size="13" lengthAdjust="spacing" textLength="165.02" x="1258.8434" y="160.0466">over agent self-selection.</text></g><g class="entity" data-qualified-name="GMN38" data-source-line="70" id="ent0039"><path d="M2738.95,680.8469 L2738.95,709.1125 A6,6 0 0 0 2744.95,715.1125 L2946.5,715.1125 L2950.5,963.7169 L2954.5,715.1125 L3156.0613,715.1125 A6,6 0 0 0 3162.0613,709.1125 L3162.0613,684.8469 L3152.0613,674.8469 L2744.95,674.8469 A6,6 0 0 0 2738.95,680.8469" fill="#FFF7D6" style="stroke:#D6B656;stroke-width:0.5;"/><path d="M3152.0613,674.8469 L3152.0613,681.8469 A3,3 0 0 0 3155.0613,684.8469 L3162.0613,684.8469 L3152.0613,674.8469" fill="#FFF7D6" style="stroke:#D6B656;stroke-width:0.5;"/><text fill="#000000" font-family="sans-serif" font-size="13" lengthAdjust="spacing" textLength="402.1113" x="2744.95" y="691.9138">Delegation transport should be compiled from persisted state</text><text fill="#000000" font-family="sans-serif" font-size="13" lengthAdjust="spacing" textLength="274.6948" x="2808.6583" y="707.0466">rather than improvised from chat context.</text></g><g class="entity" data-qualified-name="GMN41" data-source-line="76" id="ent0042"><path d="M1741.62,680.8469 L1741.62,709.1125 A6,6 0 0 0 1747.62,715.1125 L2010.2406,715.1125 A6,6 0 0 0 2016.2406,709.1125 L2016.2406,684.8469 L2006.2406,674.8469 L1747.62,674.8469 A6,6 0 0 0 1741.62,680.8469" fill="#FFF7D6" style="stroke:#D6B656;stroke-width:0.5;"/><path d="M2006.2406,674.8469 L2006.2406,681.8469 A3,3 0 0 0 2009.2406,684.8469 L2016.2406,684.8469 L2006.2406,674.8469" fill="#FFF7D6" style="stroke:#D6B656;stroke-width:1;"/><text fill="#000000" font-family="sans-serif" font-size="13" lengthAdjust="spacing" textLength="253.6206" x="1747.62" y="691.9138">Movement should be justified by state,</text><text fill="#000000" font-family="sans-serif" font-size="13" lengthAdjust="spacing" textLength="120.7959" x="1814.0324" y="707.0466">not by confidence.</text></g><g class="entity" data-qualified-name="GMN44" data-source-line="81" id="ent0045"><path d="M805.22,133.8469 L805.22,162.1125 A6,6 0 0 0 811.22,168.1125 L1114.0784,168.1125 A6,6 0 0 0 1120.0784,162.1125 L1120.0784,137.8469 L1110.0784,127.8469 L811.22,127.8469 A6,6 0 0 0 805.22,133.8469" fill="#FFF7D6" style="stroke:#D6B656;stroke-width:0.5;"/><path d="M1110.0784,127.8469 L1110.0784,134.8469 A3,3 0 0 0 1113.0784,137.8469 L1120.0784,137.8469 L1110.0784,127.8469" fill="#FFF7D6" style="stroke:#D6B656;stroke-width:1;"/><text fill="#000000" font-family="sans-serif" font-size="13" lengthAdjust="spacing" textLength="274.7773" x="820.7605" y="144.9138">Recommended machine-operable phases:</text><text fill="#000000" font-family="sans-serif" font-size="13" lengthAdjust="spacing" textLength="293.8584" x="811.22" y="160.0466">intake, discovery, design, build, verify, close.</text></g><!--link run_state to dispatcher--><g class="link" data-entity-1="ent0003" data-entity-2="ent0008" data-link-type="dependency" data-source-line="43" id="lnk16"><path d="M1038.96,642.8469 C1104.6,680.2169 1194.2355,731.2389 1260.8755,769.1689" fill="none" id="run_state-to-dispatcher" style="stroke:#4B5563;stroke-width:1;"/><polygon fill="#4B5563" points="1266.09,772.1369,1260.2469,764.2086,1261.7446,769.6636,1256.2896,771.1612,1266.09,772.1369" style="stroke:#4B5563;stroke-width:1;"/></g><!--link beads to dispatcher--><g class="link" data-entity-1="ent0004" data-entity-2="ent0008" data-link-type="dependency" data-source-line="44" id="lnk17"><path d="M1037.45,436.0869 C1066.88,447.8969 1098.76,465.5069 1120.08,490.9769 C1184.1,567.4769 1122.53,626.2169 1181.08,706.9769 C1202.89,737.0669 1230.4676,758.3491 1260.9576,776.4091" fill="none" id="beads-to-dispatcher" style="stroke:#4B5563;stroke-width:1;"/><polygon fill="#4B5563" points="1266.12,779.4669,1260.415,771.4386,1261.818,776.9187,1256.3379,778.3218,1266.12,779.4669" style="stroke:#4B5563;stroke-width:1;"/></g><!--link repo to dispatcher--><g class="link" data-entity-1="ent0005" data-entity-2="ent0008" data-link-type="dependency" data-source-line="45" id="lnk18"><path d="M1345.85,506.0169 C1345.85,592.6969 1345.85,673.3869 1345.85,760.0669" fill="none" id="repo-to-dispatcher" style="stroke:#4B5563;stroke-width:1;"/><polygon fill="#4B5563" points="1345.85,766.0669,1349.85,757.0669,1345.85,761.0669,1341.85,757.0669,1345.85,766.0669" style="stroke:#4B5563;stroke-width:1;"/></g><!--link repo to validator--><g class="link" data-entity-1="ent0005" data-entity-2="ent0009" data-link-type="dependency" data-source-line="46" id="lnk19"><path d="M1394.87,505.9469 C1466.57,580.6469 1607.55,722.2269 1741.62,825.9769 C1756.56,837.5369 1768.0732,845.701 1784.3232,856.291" fill="none" id="repo-to-validator" style="stroke:#4B5563;stroke-width:1;"/><polygon fill="#4B5563" points="1789.35,859.5669,1783.9938,851.3018,1785.161,856.837,1779.6259,858.0042,1789.35,859.5669" style="stroke:#4B5563;stroke-width:1;"/></g><!--link dolt to repo--><g class="link" data-entity-1="ent0006" data-entity-2="ent0005" data-link-type="dependency" data-source-line="47" id="lnk20"><path d="M1030.66,298.4669 C1058.5,310.5769 1091.02,325.0869 1120.08,338.9769 C1168.31,362.0369 1216.1992,386.6048 1258.7292,408.9648" fill="none" id="dolt-to-repo" style="stroke:#4B5563;stroke-width:1;"/><polygon fill="#4B5563" points="1264.04,411.7569,1257.9353,404.0282,1259.6144,409.4301,1254.2125,411.1092,1264.04,411.7569" style="stroke:#4B5563;stroke-width:1;"/></g><!--link dispatcher to validator--><g class="link" data-entity-1="ent0008" data-entity-2="ent0009" data-link-type="dependency" data-source-line="49" id="lnk21"><path d="M1425.79,831.0969 C1523.02,848.4869 1681.8438,876.9002 1783.3438,895.0602" fill="none" id="dispatcher-to-validator" style="stroke:#4B5563;stroke-width:1;"/><polygon fill="#4B5563" points="1789.25,896.1169,1781.0952,890.5943,1784.3282,895.2363,1779.6862,898.4693,1789.25,896.1169" style="stroke:#4B5563;stroke-width:1;"/><text fill="#000000" font-family="sans-serif" font-size="13" lengthAdjust="spacing" textLength="169.7363" x="1541.62" y="850.0438">validate exit/entry criteria</text></g><!--link dispatcher to office_mapper--><g class="link" data-entity-1="ent0008" data-entity-2="ent0010" data-link-type="dependency" data-source-line="50" id="lnk22"><path d="M1377.28,868.0469 C1411.01,920.5069 1470.07,1001.0769 1540.62,1048.9769 C1604.76,1092.5169 1681.4575,1118.6182 1748.8175,1135.3782" fill="none" id="dispatcher-to-office_mapper" style="stroke:#4B5563;stroke-width:1;"/><polygon fill="#4B5563" points="1754.64,1136.8269,1746.8721,1130.7722,1749.7879,1135.6196,1744.9405,1138.5355,1754.64,1136.8269" style="stroke:#4B5563;stroke-width:1;"/><text fill="#000000" font-family="sans-serif" font-size="13" lengthAdjust="spacing" textLength="131.9551" x="1560.62" y="1045.0438">derive owning office</text></g><!--link dispatcher to transition_engine--><g class="link" data-entity-1="ent0008" data-entity-2="ent0011" data-link-type="dependency" data-source-line="51" id="lnk23"><path d="M1425.6,866.5669 C1502.77,912.1769 1625.42,976.8569 1741.62,1004.9769 C1907.11,1045.0269 2100.2733,1041.1365 2219.9733,1033.1465" fill="none" id="dispatcher-to-transition_engine" style="stroke:#4B5563;stroke-width:1;"/><polygon fill="#4B5563" points="2225.96,1032.7469,2216.7136,1029.3552,2220.9711,1033.0799,2217.2464,1037.3374,2225.96,1032.7469" style="stroke:#4B5563;stroke-width:1;"/><text fill="#000000" font-family="sans-serif" font-size="13" lengthAdjust="spacing" textLength="120.8086" x="1818.93" y="1001.0438">current unit status</text></g><!--link transition_engine to dispatcher--><g class="link" data-entity-1="ent0011" data-entity-2="ent0008" data-link-type="dependency" data-source-line="62" id="lnk34"><path d="M2270.45,971.8169 C2209.89,925.6369 2113.02,861.1869 2016.24,835.9769 C1808.67,781.9069 1558.5732,795.3404 1431.7332,807.3704" fill="none" id="transition_engine-to-dispatcher" style="stroke:#4B5563;stroke-width:1;"/><polygon fill="#4B5563" points="1425.76,807.9369,1435.0975,811.0692,1430.7377,807.4648,1434.3421,803.105,1425.76,807.9369" style="stroke:#4B5563;stroke-width:1;"/><text fill="#000000" font-family="sans-serif" font-size="13" lengthAdjust="spacing" textLength="160.1704" x="1798.93" y="795.0438">resume when unfinished</text></g><!--link validator to transition_engine--><g class="link" data-entity-1="ent0009" data-entity-2="ent0011" data-link-type="dependency" data-source-line="52" id="lnk24"><path d="M1968.56,933.7069 C2042.3,951.7869 2141.6727,976.1576 2220.0327,995.3776" fill="none" id="validator-to-transition_engine" style="stroke:#4B5563;stroke-width:1;"/><polygon fill="#4B5563" points="2225.86,996.8069,2218.072,990.7781,2221.0039,995.6158,2216.1662,998.5478,2225.86,996.8069" style="stroke:#4B5563;stroke-width:1;"/><text fill="#000000" font-family="sans-serif" font-size="13" lengthAdjust="spacing" textLength="148.8145" x="2047.24" y="951.0438">legal / illegal transition</text></g><!--link office_mapper to transition_engine--><g class="link" data-entity-1="ent0010" data-entity-2="ent0011" data-link-type="dependency" data-source-line="53" id="lnk25"><path d="M2003.33,1122.6269 C2072.96,1101.5569 2153.3672,1077.2147 2220.0872,1057.0247" fill="none" id="office_mapper-to-transition_engine" style="stroke:#4B5563;stroke-width:1;"/><polygon fill="#4B5563" points="2225.83,1055.2869,2216.0572,1054.0651,2221.0443,1056.7351,2218.3743,1061.7222,2225.83,1055.2869" style="stroke:#4B5563;stroke-width:1;"/><text fill="#000000" font-family="sans-serif" font-size="13" lengthAdjust="spacing" textLength="97.8618" x="2072.74" y="1064.0438">assigned office</text></g><!--link transition_engine to transport_prep--><g class="link" data-entity-1="ent0011" data-entity-2="ent0012" data-link-type="dependency" data-source-line="54" id="lnk26"><path d="M2441.35,1022.9769 C2550.03,1022.9769 2712.12,1022.9769 2824.89,1022.9769" fill="none" id="transition_engine-to-transport_prep" style="stroke:#4B5563;stroke-width:1;"/><polygon fill="#4B5563" points="2830.89,1022.9769,2821.89,1018.9769,2825.89,1022.9769,2821.89,1026.9769,2830.89,1022.9769" style="stroke:#4B5563;stroke-width:1;"/><text fill="#000000" font-family="sans-serif" font-size="13" lengthAdjust="spacing" textLength="236.2026" x="2471.95" y="1019.0438">compile next legal execution packet</text></g><!--link transport_prep to omp--><g class="link" data-entity-1="ent0012" data-entity-2="ent0014" data-link-type="dependency" data-source-line="55" id="lnk27"><path d="M2888.46,1081.9969 C2784.07,1176.4269 2560.55,1350.9769 2334.6,1350.9769 C469.98,1350.9769 469.98,1350.9769 469.98,1350.9769 C277.88,1350.9769 143.6779,658.1064 111.6779,475.9064" fill="none" id="transport_prep-to-omp" style="stroke:#4B5563;stroke-width:1;"/><polygon fill="#4B5563" points="110.64,469.9969,108.2572,479.5531,111.5049,474.9215,116.1366,478.1693,110.64,469.9969" style="stroke:#4B5563;stroke-width:1;"/><text fill="#000000" font-family="sans-serif" font-size="13" lengthAdjust="spacing" textLength="186.6147" x="1252.85" y="1347.0438">dispatch governed next step</text></g><!--link omp to active_unit--><g class="link" data-entity-1="ent0014" data-entity-2="ent0015" data-link-type="dependency" data-source-line="56" id="lnk28"><path d="M182.02,424.4069 C242.19,422.4369 318.9932,419.9233 380.3632,417.9133" fill="none" id="omp-to-active_unit" style="stroke:#4B5563;stroke-width:1;"/><polygon fill="#4B5563" points="386.36,417.7169,377.2339,414.0136,381.3627,417.8805,377.4958,422.0093,386.36,417.7169" style="stroke:#4B5563;stroke-width:1;"/><text fill="#000000" font-family="sans-serif" font-size="13" lengthAdjust="spacing" textLength="143.4888" x="212.74" y="415.0438">execute assigned unit</text></g><!--link active_unit to repo--><g class="link" data-entity-1="ent0015" data-entity-2="ent0005" data-link-type="dependency" data-source-line="57" id="lnk29"><path d="M519.58,347.7469 C577.23,272.8669 682.08,156.2869 805.22,109.9769 C936.2,60.7169 997.05,43.2969 1120.08,109.9769 C1150.21,126.3069 1258.2795,306.5485 1312.1495,398.5985" fill="none" id="active_unit-to-repo" style="stroke:#4B5563;stroke-width:1;"/><polygon fill="#4B5563" points="1315.18,403.7769,1314.0865,393.9889,1312.6546,399.4615,1307.1819,398.0296,1315.18,403.7769" style="stroke:#4B5563;stroke-width:1;"/><text fill="#000000" font-family="sans-serif" font-size="13" lengthAdjust="spacing" textLength="182.0571" x="871.65" y="63.0438">write artifacts and evidence</text></g><!--link active_unit to beads--><g class="link" data-entity-1="ent0015" data-entity-2="ent0004" data-link-type="dependency" data-source-line="58" id="lnk30"><path d="M555.6,414.9769 C649.02,414.9769 792.81,414.9769 881.98,414.9769" fill="none" id="active_unit-to-beads" style="stroke:#4B5563;stroke-width:1;"/><polygon fill="#4B5563" points="887.98,414.9769,878.98,410.9769,882.98,414.9769,878.98,418.9769,887.98,414.9769" style="stroke:#4B5563;stroke-width:1;"/><text fill="#000000" font-family="sans-serif" font-size="13" lengthAdjust="spacing" textLength="118.46" x="622.22" y="411.0438">update work state</text></g><!--link active_unit to run_state--><g class="link" data-entity-1="ent0015" data-entity-2="ent0003" data-link-type="dependency" data-source-line="59" id="lnk31"><path d="M555.6,446.5669 C648.47,481.6569 791.4471,535.6767 880.7971,569.4267" fill="none" id="active_unit-to-run_state" style="stroke:#4B5563;stroke-width:1;"/><polygon fill="#4B5563" points="886.41,571.5469,879.4041,564.6247,881.7326,569.7801,876.5772,572.1086,886.41,571.5469" style="stroke:#4B5563;stroke-width:1;"/><text fill="#000000" font-family="sans-serif" font-size="13" lengthAdjust="spacing" textLength="186.7607" x="588.22" y="456.0438">update phase/unit/next_step</text></g><!--link active_unit to dolt--><g class="link" data-entity-1="ent0015" data-entity-2="ent0006" data-link-type="dependency" data-source-line="60" id="lnk32"><path d="M555.6,390.2169 C651.34,361.8669 800.537,317.6908 888.757,291.5608" fill="none" id="active_unit-to-dolt" style="stroke:#4B5563;stroke-width:1;"/><polygon fill="#4B5563" points="894.51,289.8569,884.7446,288.5775,889.7159,291.2769,887.0166,296.2481,894.51,289.8569" style="stroke:#4B5563;stroke-width:1;"/><text fill="#000000" font-family="sans-serif" font-size="13" lengthAdjust="spacing" textLength="151.6011" x="605.72" y="322.0438">append durable history</text></g><!--link transition_engine to run_state--><g class="link" data-entity-1="ent0011" data-entity-2="ent0003" data-link-type="dependency" data-source-line="61" id="lnk33"><path d="M2281.64,1074.0569 C2223.33,1128.5469 2122.13,1211.5269 2016.24,1244.9769 C1899.86,1281.7369 1860.66,1271.9469 1741.62,1244.9769 C1452.86,1179.5569 1392.35,1092.4069 1181.08,884.9769 C1121.24,826.2269 1067.5667,755.289 1026.9167,696.609" fill="none" id="transition_engine-to-run_state" style="stroke:#4B5563;stroke-width:1;"/><polygon fill="#4B5563" points="1023.5,691.6769,1025.337,701.3529,1026.3473,695.787,1031.9132,696.7973,1023.5,691.6769" style="stroke:#4B5563;stroke-width:1;"/><text fill="#000000" font-family="sans-serif" font-size="13" lengthAdjust="spacing" textLength="149.646" x="1551.62" y="1178.0438">persist next legal state</text></g><!--link dispatcher to GMN35--><g class="link" data-entity-1="ent0008" data-entity-2="ent0036" data-link-type="association" data-source-line="65" id="lnk37"><path d="M1265.97,787.0469 C1223.5,766.5569 1175.1,734.7869 1150.58,689.4769 C1125.77,643.6469 1124.46,265.5669 1150.58,220.4769 C1164.89,195.7569 1188.97,179.3869 1215.42,168.5669" fill="none" id="dispatcher-GMN35" style="stroke:#4B5563;stroke-width:1;stroke-dasharray:7,7;"/></g><!--link validator to GMN41--><g class="link" data-entity-1="ent0009" data-entity-2="ent0042" data-link-type="association" data-source-line="76" id="lnk43"><path d="M1789.27,895.9869 C1697.65,875.6069 1575.47,834.6969 1626.12,767.4769 C1653.4,731.2869 1697.52,712.2569 1741.33,702.5269" fill="none" id="validator-GMN41" style="stroke:#4B5563;stroke-width:1;stroke-dasharray:7,7;"/></g><!--link run_state to GMN44--><g class="link" data-entity-1="ent0003" data-entity-2="ent0045" data-link-type="association" data-source-line="81" id="lnk46"><path d="M886.59,587.3669 C822.49,572.2969 734.65,540.1669 692.22,473.4769 C631.86,378.6069 623.77,309.6869 692.22,220.4769 C719.37,185.0969 761.79,165.7569 805.05,155.5169" fill="none" id="run_state-GMN44" style="stroke:#4B5563;stroke-width:1;stroke-dasharray:7,7;"/></g><g class="legend" data-source-line="17"><rect fill="none" height="58.8906" rx="6" ry="6" style="stroke:#000000;stroke-width:1;" width="324.6543" x="2818.407" y="1369.1097"/><text fill="#000000" font-family="sans-serif" font-size="14" lengthAdjust="spacing" textLength="93.502" x="2933.9832" y="1387.1048">Source basis:</text><ellipse cx="2868.5384" cy="1399.2034" fill="#000000" rx="2.5" ry="2.5"/><text fill="#000000" font-family="sans-serif" font-size="14" lengthAdjust="spacing" textLength="223.3916" x="2875.0384" y="1403.4017">THE_FIRM_CONTROL_PLANE.md</text><ellipse cx="2828.907" cy="1415.5003" fill="#000000" rx="2.5" ry="2.5"/><text fill="#000000" font-family="sans-serif" font-size="14" lengthAdjust="spacing" textLength="302.6543" x="2835.407" y="1419.6986">THE_FIRM_WORKFLOW_ARCHITECTURE.md</text></g><?plantuml-src VLRRRXit47tNLmoSjzONf8cTmWy5v5iJD8bTHKKUgc91xSvAZ7V9BScrOXG5-X7zmdv9pv3QrKgoumT3IywSEPmvCsJGeMAQBfbkjAlflt_-fKjhWhCLtLNAC4rQ4tJDTALzeqA-75LS1WgMd5ui0nNQSHwqDID_hqsZdAffhlBxXREjAIvjPHsjbZhmODylLM5NsYoeL9KVxZJmL0l-51v1Ie2LMLH3Wu9BrLPXob_3kD8BKxC9bECVku7Ls3cxIh5VlBuuFJrxDTYSTB0NrXNircQlthn-UVhoIRETqxouYNy3qxl4-jjudT4UseytuvlBWU576vwC-URgRDTg6F3gxEBiT6WHtNFh33jw-SC8TLkmALBPHaIVREjoHgsyzkVu_ewcRw-pctUJ3zdbxSVfvFPzTlT-_F7wk2wsTp_VJdwvUN_xEHjFBj--crvVJd-RH2kWfnYZqRgET7373lX1gkI32dn0Vm6jhomT79UGtObhpL7SFtwigvbXiu2tr3RJnSmqI-LvPbgZmypO5GwKsRBKETPmrA1p3ML2JXbKotvc3DIH8MWpCux_RA7G8XExKkK1s_FAvlVWDJDBKBFkyVS_3aXv0eaiajXcUC6gyAIzRvaMJZLBGLM5Dkm1KN234xF9jKJEAwLhC1a6oIlhMySnn5omjk4dt5YlXGRnWnOa76l0TgbCWTFYrmExGiUro99AZTCcvi3OHhsoLI3L5Xgjwjgm5AAvzkZJBSWk8bpbSsNTVLdP5QqJ4y4BG8t-7jIqcm-Dp8UzWdPpWbtA4_MrdHbjV0FBTJ9t5WTdHXgzr-KZvQrpeXqfVIBJesz7_LaIyg0gNIWGtoIG-2kEuWSBnfeZhflmsEUXjndGejpM8gfvnNtY9PvqN16PzC6sYTn6OLAjcaOoe4rGzqn7Fz6TiqMRXvFFwnoZ8jhd5jYFiZrskKp9F40gKYoFuRQ_FczrLSZojLb0WEoYre0XoSBoh-EaDquV9nEk6Br3trCNDd9FtPCbajlyfquPo1528OunaBeutnLI8QXT1H08AQeun5LfEKBtgufIcoRzHwxQV97wiizLfGGg2hYgqgvZtzQfEq8VEqkndw3MM1UeSTBRAHb1-VkZOA77JSa8aIhfawL2xsC3zmFuYO8vYi7xxkxerr8Z-mm7XonefHuORM2IBcmYdXOsN8LC9cIs-cDzO-vrnks7Esa6sGC534h15kO-weIT91fHFGQBD6egLTrieuoJaMGPmkMyJHbDGXk8gXFHEa-TIjRwYDWfNYPGSe1-_j7HeCuGI9nQkuioSvvTspI7J8-u56VKQ6EyRKVdtM-MTWmdo0uQ8tVGljDgrszBmF35DIX9mTqWhugqk-kpfoxu3UTBRFpMZpQSdlDAEZyXNQLV6vlHDh7d09B-eCmrqtsRthENcB25633pXytMAs0jvD6EKqnMBSvTDcWXyf3W4KQkoP5OYEL04F18sBnX6uKojEdg2kELL6epmsCFTRVBdayIr3crJIouN3jfxEwZzvhihUDhu4GiJlgBViyloWw9RgIfgMXT75_hQ-sPV0zZDUdTCanr8lYqwq1gv-k9XbSl6wIir9WVIyQZoE39HdCRWgrH-EshJ1xWwzc0vx5jCTXGln9uDUUufpGcMky1UwaXnHc2SL6LH_YNdk77yWmZ2RKNS6Ta4Lsnd2ogfz_hei-varj1fGF0EYFuxDz8AiY10-YHhXjd7xJlhC4vT7DtI6cNq_0M_O13nPcyeV2bzH2K1khyCSKzX24mv1lmPHBODmuzVDJXIM_hMfvh1IvetAk6ZopE5RKHPHLVmccK7b8_Il4pZj93YgFqaD8eFQGuIZV1_mS0?></g></svg>