<?plantuml 1.2026.1?><svg xmlns="http://www.w3.org/2000/svg" xmlns:xlink="http://www.w3.org/1999/xlink" contentStyleType="text/css" data-diagram-type="DESCRIPTION" height="365px" preserveAspectRatio="none" style="width:5365px;height:365px;background:#FFFFFF;" version="1.1" viewBox="0 0 5365 365" width="5365px" zoomAndPan="magnify"><title>The Firm &#8212; Workflow Phases, Gates, and Artifact Flow</title><defs/><g><g class="title" data-source-line="2"><text fill="#000000" font-family="sans-serif" font-size="14" font-weight="bold" lengthAdjust="spacing" textLength="430.6162" x="2460.3319" y="22.9951">The Firm &#8212; Workflow Phases, Gates, and Artifact Flow</text></g><!--entity p0--><g class="entity" data-qualified-name="p0" data-source-line="23" id="ent0002"><rect fill="#FFFFFF" height="68.8906" rx="6" ry="6" style="stroke:#374151;stroke-width:0.5;" width="128.5889" x="7" y="76.8969"/><text fill="#000000" font-family="sans-serif" font-size="14" lengthAdjust="spacing" textLength="55.1592" x="43.7148" y="99.892">Phase 0</text><text fill="#000000" font-family="sans-serif" font-size="14" lengthAdjust="spacing" textLength="43.791" x="49.3989" y="116.1889">Intake</text><text fill="#000000" font-family="sans-serif" font-size="14" lengthAdjust="spacing" textLength="108.5889" x="17" y="132.4857">Owner: Product</text></g><!--entity p1--><g class="entity" data-qualified-name="p1" data-source-line="24" id="ent0003"><rect fill="#FFFFFF" height="117.7813" rx="6" ry="6" style="stroke:#374151;stroke-width:0.5;" width="138.2549" x="196.59" y="52.4469"/><text fill="#000000" font-family="sans-serif" font-size="14" lengthAdjust="spacing" textLength="55.1592" x="238.1379" y="75.442">Phase 1</text><text fill="#000000" font-family="sans-serif" font-size="14" lengthAdjust="spacing" textLength="115.835" x="207.8" y="91.7389">Product Framing</text><text fill="#000000" font-family="sans-serif" font-size="14" lengthAdjust="spacing" textLength="63.417" x="234.0089" y="108.0357">Artifacts:</text><text fill="#000000" font-family="sans-serif" font-size="14" lengthAdjust="spacing" textLength="67.7715" x="231.8317" y="124.3326">vision.md</text><text fill="#000000" font-family="sans-serif" font-size="14" lengthAdjust="spacing" textLength="118.2549" x="206.59" y="140.6295">product-brief.md</text><text fill="#000000" font-family="sans-serif" font-size="14" lengthAdjust="spacing" textLength="107.7002" x="211.8673" y="156.9264">acceptance.md</text></g><!--entity g1--><g class="entity" data-qualified-name="g1" data-source-line="25" id="ent0004"><rect fill="#FFFFFF" height="52.5938" rx="6" ry="6" style="stroke:#374151;stroke-width:0.5;" width="149.9307" x="395.84" y="85.0369"/><text fill="#000000" font-family="sans-serif" font-size="14" lengthAdjust="spacing" textLength="46.8877" x="447.3615" y="108.032">Gate 1</text><text fill="#000000" font-family="sans-serif" font-size="14" lengthAdjust="spacing" textLength="129.9307" x="405.84" y="124.3289">Product Readiness</text></g><!--entity p2--><g class="entity" data-qualified-name="p2" data-source-line="26" id="ent0005"><rect fill="#FFFFFF" height="117.7813" rx="6" ry="6" style="stroke:#374151;stroke-width:0.5;" width="182.9004" x="778.77" y="52.4469"/><text fill="#000000" font-family="sans-serif" font-size="14" lengthAdjust="spacing" textLength="55.1592" x="842.6406" y="75.442">Phase 2</text><text fill="#000000" font-family="sans-serif" font-size="14" lengthAdjust="spacing" textLength="140.2803" x="800.0801" y="91.7389">Technical Discovery</text><text fill="#000000" font-family="sans-serif" font-size="14" lengthAdjust="spacing" textLength="63.417" x="838.5117" y="108.0357">Artifacts:</text><text fill="#000000" font-family="sans-serif" font-size="14" lengthAdjust="spacing" textLength="162.9004" x="788.77" y="124.3326">technical-discovery.md</text><text fill="#000000" font-family="sans-serif" font-size="14" lengthAdjust="spacing" textLength="101.9717" x="819.2344" y="140.6295">callsite impact</text><text fill="#000000" font-family="sans-serif" font-size="14" lengthAdjust="spacing" textLength="112.0342" x="814.2031" y="156.9264">state flow notes</text></g><!--entity g2--><g class="entity" data-qualified-name="g2" data-source-line="27" id="ent0006"><rect fill="#FFFFFF" height="52.5938" rx="6" ry="6" style="stroke:#374151;stroke-width:0.5;" width="193.1611" x="1022.67" y="85.0369"/><text fill="#000000" font-family="sans-serif" font-size="14" lengthAdjust="spacing" textLength="46.8877" x="1095.8067" y="108.032">Gate 2</text><text fill="#000000" font-family="sans-serif" font-size="14" lengthAdjust="spacing" textLength="173.1611" x="1032.67" y="124.3289">Discovery Completeness</text></g><!--entity p3--><g class="entity" data-qualified-name="p3" data-source-line="28" id="ent0007"><rect fill="#FFFFFF" height="134.0781" rx="6" ry="6" style="stroke:#374151;stroke-width:0.5;" width="164.5459" x="1618.6" y="44.2969"/><text fill="#000000" font-family="sans-serif" font-size="14" lengthAdjust="spacing" textLength="55.1592" x="1673.2934" y="67.292">Phase 3</text><text fill="#000000" font-family="sans-serif" font-size="14" lengthAdjust="spacing" textLength="84.957" x="1658.3944" y="83.5889">Design Lock</text><text fill="#000000" font-family="sans-serif" font-size="14" lengthAdjust="spacing" textLength="63.417" x="1669.1645" y="99.8857">Artifacts:</text><text fill="#000000" font-family="sans-serif" font-size="14" lengthAdjust="spacing" textLength="142.0713" x="1629.8373" y="116.1826">technical-design.md</text><text fill="#000000" font-family="sans-serif" font-size="14" lengthAdjust="spacing" textLength="65.4404" x="1668.1527" y="132.4795">contracts</text><text fill="#000000" font-family="sans-serif" font-size="14" lengthAdjust="spacing" textLength="144.5459" x="1628.6" y="148.7764">verification mapping</text><text fill="#000000" font-family="sans-serif" font-size="14" lengthAdjust="spacing" textLength="71.6064" x="1665.0697" y="165.0732">wave plan</text></g><!--entity g3--><g class="entity" data-qualified-name="g3" data-source-line="29" id="ent0008"><rect fill="#FFFFFF" height="52.5938" rx="6" ry="6" style="stroke:#374151;stroke-width:0.5;" width="104.957" x="1940.91" y="85.0369"/><text fill="#000000" font-family="sans-serif" font-size="14" lengthAdjust="spacing" textLength="46.8877" x="1969.9447" y="108.032">Gate 3</text><text fill="#000000" font-family="sans-serif" font-size="14" lengthAdjust="spacing" textLength="84.957" x="1950.91" y="124.3289">Design Lock</text></g><!--entity p4--><g class="entity" data-qualified-name="p4" data-source-line="30" id="ent0009"><rect fill="#FFFFFF" height="117.7813" rx="6" ry="6" style="stroke:#374151;stroke-width:0.5;" width="161.8525" x="2344.87" y="52.4469"/><text fill="#000000" font-family="sans-serif" font-size="14" lengthAdjust="spacing" textLength="55.1592" x="2398.2167" y="75.442">Phase 4</text><text fill="#000000" font-family="sans-serif" font-size="14" lengthAdjust="spacing" textLength="122.8691" x="2364.3617" y="91.7389">Delivery Planning</text><text fill="#000000" font-family="sans-serif" font-size="14" lengthAdjust="spacing" textLength="63.417" x="2394.0878" y="108.0357">Artifacts:</text><text fill="#000000" font-family="sans-serif" font-size="14" lengthAdjust="spacing" textLength="118.4736" x="2366.5595" y="124.3326">delivery-plan.md</text><text fill="#000000" font-family="sans-serif" font-size="14" lengthAdjust="spacing" textLength="117.5713" x="2367.0106" y="140.6295">execution waves</text><text fill="#000000" font-family="sans-serif" font-size="14" lengthAdjust="spacing" textLength="141.8525" x="2354.87" y="156.9264">engineering handoff</text></g><!--entity g4--><g class="entity" data-qualified-name="g4" data-source-line="31" id="ent0010"><rect fill="#FFFFFF" height="52.5938" rx="6" ry="6" style="stroke:#374151;stroke-width:0.5;" width="154.333" x="2567.72" y="85.0369"/><text fill="#000000" font-family="sans-serif" font-size="14" lengthAdjust="spacing" textLength="46.8877" x="2621.4427" y="108.032">Gate 4</text><text fill="#000000" font-family="sans-serif" font-size="14" lengthAdjust="spacing" textLength="134.333" x="2577.72" y="124.3289">Delivery Readiness</text></g><!--entity p5--><g class="entity" data-qualified-name="p5" data-source-line="32" id="ent0011"><rect fill="#FFFFFF" height="117.7813" rx="6" ry="6" style="stroke:#374151;stroke-width:0.5;" width="182.2305" x="3068.05" y="52.4469"/><text fill="#000000" font-family="sans-serif" font-size="14" lengthAdjust="spacing" textLength="55.1592" x="3131.5856" y="75.442">Phase 5</text><text fill="#000000" font-family="sans-serif" font-size="14" lengthAdjust="spacing" textLength="162.2305" x="3078.05" y="91.7389">Implementation Waves</text><text fill="#000000" font-family="sans-serif" font-size="14" lengthAdjust="spacing" textLength="63.417" x="3127.4567" y="108.0357">Artifacts:</text><text fill="#000000" font-family="sans-serif" font-size="14" lengthAdjust="spacing" textLength="33.7627" x="3142.2839" y="124.3326">code</text><text fill="#000000" font-family="sans-serif" font-size="14" lengthAdjust="spacing" textLength="34.1797" x="3142.0754" y="140.6295">tests</text><text fill="#000000" font-family="sans-serif" font-size="14" lengthAdjust="spacing" textLength="154.2119" x="3082.0593" y="156.9264">implementation notes</text></g><!--entity g5--><g class="entity" data-qualified-name="g5" data-source-line="33" id="ent0012"><rect fill="#FFFFFF" height="52.5938" rx="6" ry="6" style="stroke:#374151;stroke-width:0.5;" width="82.2959" x="3311.28" y="85.0369"/><text fill="#000000" font-family="sans-serif" font-size="14" lengthAdjust="spacing" textLength="46.8877" x="3328.9841" y="108.032">Gate 5</text><text fill="#000000" font-family="sans-serif" font-size="14" lengthAdjust="spacing" textLength="62.2959" x="3321.28" y="124.3289">QA Entry</text></g><!--entity p6--><g class="entity" data-qualified-name="p6" data-source-line="34" id="ent0013"><rect fill="#FFFFFF" height="134.0781" rx="6" ry="6" style="stroke:#374151;stroke-width:0.5;" width="165.3184" x="3687.55" y="44.2969"/><text fill="#000000" font-family="sans-serif" font-size="14" lengthAdjust="spacing" textLength="55.1592" x="3742.6296" y="67.292">Phase 6</text><text fill="#000000" font-family="sans-serif" font-size="14" lengthAdjust="spacing" textLength="120.1621" x="3710.1281" y="83.5889">QA &amp; Verification</text><text fill="#000000" font-family="sans-serif" font-size="14" lengthAdjust="spacing" textLength="63.417" x="3738.5007" y="99.8857">Artifacts:</text><text fill="#000000" font-family="sans-serif" font-size="14" lengthAdjust="spacing" textLength="98.1094" x="3721.1545" y="116.1826">qa-verdict.md</text><text fill="#000000" font-family="sans-serif" font-size="14" lengthAdjust="spacing" textLength="145.3184" x="3697.55" y="132.4795">propagation verdicts</text><text fill="#000000" font-family="sans-serif" font-size="14" lengthAdjust="spacing" textLength="69.8838" x="3735.2673" y="148.7764">E2E notes</text><text fill="#000000" font-family="sans-serif" font-size="14" lengthAdjust="spacing" textLength="128.5635" x="3705.9274" y="165.0732">residual risk notes</text></g><!--entity g6--><g class="entity" data-qualified-name="g6" data-source-line="35" id="ent0014"><rect fill="#FFFFFF" height="52.5938" rx="6" ry="6" style="stroke:#374151;stroke-width:0.5;" width="171.6689" x="3998.84" y="85.0369"/><text fill="#000000" font-family="sans-serif" font-size="14" lengthAdjust="spacing" textLength="46.8877" x="4061.2306" y="108.032">Gate 6</text><text fill="#000000" font-family="sans-serif" font-size="14" lengthAdjust="spacing" textLength="151.6689" x="4008.84" y="124.3289">Verification Complete</text></g><!--entity p7--><g class="entity" data-qualified-name="p7" data-source-line="36" id="ent0015"><rect fill="#FFFFFF" height="101.4844" rx="6" ry="6" style="stroke:#374151;stroke-width:0.5;" width="217.9346" x="4381.51" y="60.5969"/><text fill="#000000" font-family="sans-serif" font-size="14" lengthAdjust="spacing" textLength="55.1592" x="4462.8977" y="83.592">Phase 7</text><text fill="#000000" font-family="sans-serif" font-size="14" lengthAdjust="spacing" textLength="197.9346" x="4391.51" y="99.8889">Release Readiness / Closure</text><text fill="#000000" font-family="sans-serif" font-size="14" lengthAdjust="spacing" textLength="63.417" x="4458.7688" y="116.1857">Artifacts:</text><text fill="#000000" font-family="sans-serif" font-size="14" lengthAdjust="spacing" textLength="151.1836" x="4414.8855" y="132.4826">release-readiness.md</text><text fill="#000000" font-family="sans-serif" font-size="14" lengthAdjust="spacing" textLength="107.707" x="4436.6238" y="148.7795">closure records</text></g><!--entity g7--><g class="entity" data-qualified-name="g7" data-source-line="37" id="ent0016"><rect fill="#FFFFFF" height="52.5938" rx="6" ry="6" style="stroke:#374151;stroke-width:0.5;" width="110.501" x="4783.15" y="85.0369"/><text fill="#000000" font-family="sans-serif" font-size="14" lengthAdjust="spacing" textLength="46.8877" x="4814.9566" y="108.032">Gate 7</text><text fill="#000000" font-family="sans-serif" font-size="14" lengthAdjust="spacing" textLength="90.501" x="4793.15" y="124.3289">Final Closure</text></g><!--entity p8--><g class="entity" data-qualified-name="p8" data-source-line="38" id="ent0017"><rect fill="#FFFFFF" height="85.1875" rx="6" ry="6" style="stroke:#374151;stroke-width:0.5;" width="116.9199" x="5242.36" y="68.7469"/><text fill="#000000" font-family="sans-serif" font-size="14" lengthAdjust="spacing" textLength="55.1592" x="5273.2404" y="91.742">Phase 8</text><text fill="#000000" font-family="sans-serif" font-size="14" lengthAdjust="spacing" textLength="96.9199" x="5252.36" y="108.0389">Retrospective</text><text fill="#000000" font-family="sans-serif" font-size="14" lengthAdjust="spacing" textLength="63.417" x="5269.1115" y="124.3357">Artifacts:</text><text fill="#000000" font-family="sans-serif" font-size="14" lengthAdjust="spacing" textLength="61.1543" x="5270.2428" y="140.6326">retro.md</text></g><g class="entity" data-qualified-name="GMN33" data-source-line="57" id="ent0034"><path d="M1521.84,219.6369 L1521.84,263.0353 A6,6 0 0 0 1527.84,269.0353 L1873.9132,269.0353 A6,6 0 0 0 1879.9132,263.0353 L1879.9132,223.6369 L1869.9132,213.6369 L1704.87,213.6369 L1700.87,178.5569 L1696.87,213.6369 L1527.84,213.6369 A6,6 0 0 0 1521.84,219.6369" fill="#FFF7D6" style="stroke:#D6B656;stroke-width:0.5;"/><path d="M1869.9132,213.6369 L1869.9132,220.6369 A3,3 0 0 0 1872.9132,223.6369 L1879.9132,223.6369 L1869.9132,213.6369" fill="#FFF7D6" style="stroke:#D6B656;stroke-width:0.5;"/><text fill="#000000" font-family="sans-serif" font-size="13" lengthAdjust="spacing" textLength="269.0137" x="1561.8698" y="230.7038">Design package should include C4 views,</text><text fill="#000000" font-family="sans-serif" font-size="13" lengthAdjust="spacing" textLength="337.0732" x="1527.84" y="245.8366">sequence/state-flow diagrams, ADR-style decisions,</text><text fill="#000000" font-family="sans-serif" font-size="13" lengthAdjust="spacing" textLength="323.3813" x="1534.6859" y="260.9694">integration boundaries, and verification mapping.</text></g><g class="entity" data-qualified-name="GMN36" data-source-line="63" id="ent0037"><path d="M3602.58,219.2069 L3602.58,247.4725 A6,6 0 0 0 3608.58,253.4725 L3931.8398,253.4725 A6,6 0 0 0 3937.8398,247.4725 L3937.8398,223.2069 L3927.8398,213.2069 L3774.21,213.2069 L3770.21,178.7469 L3766.21,213.2069 L3608.58,213.2069 A6,6 0 0 0 3602.58,219.2069" fill="#FFF7D6" style="stroke:#D6B656;stroke-width:0.5;"/><path d="M3927.8398,213.2069 L3927.8398,220.2069 A3,3 0 0 0 3930.8398,223.2069 L3937.8398,223.2069 L3927.8398,213.2069" fill="#FFF7D6" style="stroke:#D6B656;stroke-width:0.5;"/><text fill="#000000" font-family="sans-serif" font-size="13" lengthAdjust="spacing" textLength="308.7183" x="3611.3508" y="230.2738">Propagation and E2E checks are required when</text><text fill="#000000" font-family="sans-serif" font-size="13" lengthAdjust="spacing" textLength="314.2598" x="3608.58" y="245.4066">the change affects shared state or critical flows.</text></g><g class="entity" data-qualified-name="GMN39" data-source-line="68" id="ent0040"><path d="M4660.44,178.2069 L4660.44,206.4725 A6,6 0 0 0 4666.44,212.4725 L5010.3614,212.4725 A6,6 0 0 0 5016.3614,206.4725 L5016.3614,182.2069 L5006.3614,172.2069 L4842.4,172.2069 L4838.4,137.7769 L4834.4,172.2069 L4666.44,172.2069 A6,6 0 0 0 4660.44,178.2069" fill="#FFF7D6" style="stroke:#D6B656;stroke-width:0.5;"/><path d="M5006.3614,172.2069 L5006.3614,179.2069 A3,3 0 0 0 5009.3614,182.2069 L5016.3614,182.2069 L5006.3614,172.2069" fill="#FFF7D6" style="stroke:#D6B656;stroke-width:0.5;"/><text fill="#000000" font-family="sans-serif" font-size="13" lengthAdjust="spacing" textLength="289.0977" x="4689.3519" y="189.2738">Closure requires explicit release confidence,</text><text fill="#000000" font-family="sans-serif" font-size="13" lengthAdjust="spacing" textLength="334.9214" x="4666.44" y="204.4066">resolved or accepted blockers, and artifact linkage.</text></g><!--link p0 to p1--><g class="link" data-entity-1="ent0002" data-entity-2="ent0003" data-link-type="dependency" data-source-line="40" id="lnk18"><path d="M135.83,111.3369 C155.21,111.3369 170.59,111.3369 190.28,111.3369" fill="none" id="p0-to-p1" style="stroke:#4B5563;stroke-width:1;"/><polygon fill="#4B5563" points="196.28,111.3369,187.28,107.3369,191.28,111.3369,187.28,115.3369,196.28,111.3369" style="stroke:#4B5563;stroke-width:1;"/></g><!--link p1 to g1--><g class="link" data-entity-1="ent0003" data-entity-2="ent0004" data-link-type="dependency" data-source-line="41" id="lnk19"><path d="M335.19,111.3369 C354.54,111.3369 369.68,111.3369 389.36,111.3369" fill="none" id="p1-to-g1" style="stroke:#4B5563;stroke-width:1;"/><polygon fill="#4B5563" points="395.36,111.3369,386.36,107.3369,390.36,111.3369,386.36,115.3369,395.36,111.3369" style="stroke:#4B5563;stroke-width:1;"/></g><!--link g1 to p2--><g class="link" data-entity-1="ent0004" data-entity-2="ent0005" data-link-type="dependency" data-source-line="42" id="lnk20"><path d="M546.09,111.3369 C611.92,111.3369 702.23,111.3369 772.57,111.3369" fill="none" id="g1-to-p2" style="stroke:#4B5563;stroke-width:1;"/><polygon fill="#4B5563" points="778.57,111.3369,769.57,107.3369,773.57,111.3369,769.57,115.3369,778.57,111.3369" style="stroke:#4B5563;stroke-width:1;"/><text fill="#000000" font-family="sans-serif" font-size="13" lengthAdjust="spacing" textLength="171.7739" x="576.77" y="107.4038">if acceptance intent exists</text></g><!--link p2 to g2--><g class="link" data-entity-1="ent0005" data-entity-2="ent0006" data-link-type="dependency" data-source-line="43" id="lnk21"><path d="M962.16,111.3369 C981.83,111.3369 996.69,111.3369 1016.54,111.3369" fill="none" id="p2-to-g2" style="stroke:#4B5563;stroke-width:1;"/><polygon fill="#4B5563" points="1022.54,111.3369,1013.54,107.3369,1017.54,111.3369,1013.54,115.3369,1022.54,111.3369" style="stroke:#4B5563;stroke-width:1;"/></g><!--link g2 to p3--><g class="link" data-entity-1="ent0006" data-entity-2="ent0007" data-link-type="dependency" data-source-line="44" id="lnk22"><path d="M1216.29,111.3369 C1328.57,111.3369 1506.47,111.3369 1612.18,111.3369" fill="none" id="g2-to-p3" style="stroke:#4B5563;stroke-width:1;"/><polygon fill="#4B5563" points="1618.18,111.3369,1609.18,107.3369,1613.18,111.3369,1609.18,115.3369,1618.18,111.3369" style="stroke:#4B5563;stroke-width:1;"/><text fill="#000000" font-family="sans-serif" font-size="13" lengthAdjust="spacing" textLength="244.2705" x="1246.84" y="107.4038">if surfaces and constraints are known</text></g><!--link p3 to g3--><g class="link" data-entity-1="ent0007" data-entity-2="ent0008" data-link-type="dependency" data-source-line="45" id="lnk23"><path d="M1783.57,111.3369 C1833.92,111.3369 1890.96,111.3369 1934.53,111.3369" fill="none" id="p3-to-g3" style="stroke:#4B5563;stroke-width:1;"/><polygon fill="#4B5563" points="1940.53,111.3369,1931.53,107.3369,1935.53,111.3369,1931.53,115.3369,1940.53,111.3369" style="stroke:#4B5563;stroke-width:1;"/></g><!--link g3 to p4--><g class="link" data-entity-1="ent0008" data-entity-2="ent0009" data-link-type="dependency" data-source-line="46" id="lnk24"><path d="M2046.3,111.3369 C2120.42,111.3369 2251.23,111.3369 2338.47,111.3369" fill="none" id="g3-to-p4" style="stroke:#4B5563;stroke-width:1;"/><polygon fill="#4B5563" points="2344.47,111.3369,2335.47,107.3369,2339.47,111.3369,2335.47,115.3369,2344.47,111.3369" style="stroke:#4B5563;stroke-width:1;"/><text fill="#000000" font-family="sans-serif" font-size="13" lengthAdjust="spacing" textLength="237.1611" x="2076.87" y="107.4038">if contracts + verification are locked</text></g><!--link p4 to g4--><g class="link" data-entity-1="ent0009" data-entity-2="ent0010" data-link-type="dependency" data-source-line="47" id="lnk25"><path d="M2507.01,111.3369 C2526.7,111.3369 2541.73,111.3369 2561.24,111.3369" fill="none" id="p4-to-g4" style="stroke:#4B5563;stroke-width:1;"/><polygon fill="#4B5563" points="2567.24,111.3369,2558.24,107.3369,2562.24,111.3369,2558.24,115.3369,2567.24,111.3369" style="stroke:#4B5563;stroke-width:1;"/></g><!--link g4 to p5--><g class="link" data-entity-1="ent0010" data-entity-2="ent0011" data-link-type="dependency" data-source-line="48" id="lnk26"><path d="M2722.3,111.3369 C2814.63,111.3369 2963.74,111.3369 3061.88,111.3369" fill="none" id="g4-to-p5" style="stroke:#4B5563;stroke-width:1;"/><polygon fill="#4B5563" points="3067.88,111.3369,3058.88,107.3369,3062.88,111.3369,3058.88,115.3369,3067.88,111.3369" style="stroke:#4B5563;stroke-width:1;"/><text fill="#000000" font-family="sans-serif" font-size="13" lengthAdjust="spacing" textLength="284.21" x="2753.05" y="107.4038">if waves, owners, dependencies are explicit</text></g><!--link p5 to g5--><g class="link" data-entity-1="ent0011" data-entity-2="ent0012" data-link-type="dependency" data-source-line="49" id="lnk27"><path d="M3250.76,111.3369 C3271.81,111.3369 3287.18,111.3369 3304.79,111.3369" fill="none" id="p5-to-g5" style="stroke:#4B5563;stroke-width:1;"/><polygon fill="#4B5563" points="3310.79,111.3369,3301.79,107.3369,3305.79,111.3369,3301.79,115.3369,3310.79,111.3369" style="stroke:#4B5563;stroke-width:1;"/></g><!--link g5 to p6--><g class="link" data-entity-1="ent0012" data-entity-2="ent0013" data-link-type="dependency" data-source-line="50" id="lnk28"><path d="M3394.05,111.3369 C3461.69,111.3369 3592.67,111.3369 3681.06,111.3369" fill="none" id="g5-to-p6" style="stroke:#4B5563;stroke-width:1;"/><polygon fill="#4B5563" points="3687.06,111.3369,3678.06,107.3369,3682.06,111.3369,3678.06,115.3369,3687.06,111.3369" style="stroke:#4B5563;stroke-width:1;"/><text fill="#000000" font-family="sans-serif" font-size="13" lengthAdjust="spacing" textLength="147.894" x="3424.58" y="107.4038">if QA intake is possible</text></g><!--link p6 to g6--><g class="link" data-entity-1="ent0013" data-entity-2="ent0014" data-link-type="dependency" data-source-line="51" id="lnk29"><path d="M3853.3,111.3369 C3898.06,111.3369 3947.37,111.3369 3992.58,111.3369" fill="none" id="p6-to-g6" style="stroke:#4B5563;stroke-width:1;"/><polygon fill="#4B5563" points="3998.58,111.3369,3989.58,107.3369,3993.58,111.3369,3989.58,115.3369,3998.58,111.3369" style="stroke:#4B5563;stroke-width:1;"/></g><!--link g6 to p7--><g class="link" data-entity-1="ent0014" data-entity-2="ent0015" data-link-type="dependency" data-source-line="52" id="lnk30"><path d="M4170.81,111.3369 C4232.13,111.3369 4309.34,111.3369 4375.35,111.3369" fill="none" id="g6-to-p7" style="stroke:#4B5563;stroke-width:1;"/><polygon fill="#4B5563" points="4381.35,111.3369,4372.35,107.3369,4376.35,111.3369,4372.35,115.3369,4381.35,111.3369" style="stroke:#4B5563;stroke-width:1;"/><text fill="#000000" font-family="sans-serif" font-size="13" lengthAdjust="spacing" textLength="149.7793" x="4201.51" y="107.4038">if evidence is sufficient</text></g><!--link p7 to g7--><g class="link" data-entity-1="ent0015" data-entity-2="ent0016" data-link-type="dependency" data-source-line="53" id="lnk31"><path d="M4599.51,111.3369 C4660.36,111.3369 4727.77,111.3369 4776.8,111.3369" fill="none" id="p7-to-g7" style="stroke:#4B5563;stroke-width:1;"/><polygon fill="#4B5563" points="4782.8,111.3369,4773.8,107.3369,4777.8,111.3369,4773.8,115.3369,4782.8,111.3369" style="stroke:#4B5563;stroke-width:1;"/></g><!--link g7 to p8--><g class="link" data-entity-1="ent0016" data-entity-2="ent0017" data-link-type="dependency" data-source-line="54" id="lnk32"><path d="M4894.03,111.3369 C4981.57,111.3369 5146.5,111.3369 5236.02,111.3369" fill="none" id="g7-to-p8" style="stroke:#4B5563;stroke-width:1;"/><polygon fill="#4B5563" points="5242.02,111.3369,5233.02,107.3369,5237.02,111.3369,5233.02,115.3369,5242.02,111.3369" style="stroke:#4B5563;stroke-width:1;"/><text fill="#000000" font-family="sans-serif" font-size="13" lengthAdjust="spacing" textLength="164.106" x="5047.36" y="107.4038">if closure is process-valid</text></g><g class="legend" data-source-line="17"><rect fill="none" height="58.8906" rx="6" ry="6" style="stroke:#000000;stroke-width:1;" width="324.6543" x="5014.6256" y="287.0353"/><text fill="#000000" font-family="sans-serif" font-size="14" lengthAdjust="spacing" textLength="93.502" x="5130.2018" y="305.0304">Source basis:</text><ellipse cx="5025.1256" cy="317.1291" fill="#000000" rx="2.5" ry="2.5"/><text fill="#000000" font-family="sans-serif" font-size="14" lengthAdjust="spacing" textLength="302.6543" x="5031.6256" y="321.3273">THE_FIRM_WORKFLOW_ARCHITECTURE.md</text><ellipse cx="5055.4396" cy="333.4259" fill="#000000" rx="2.5" ry="2.5"/><text fill="#000000" font-family="sans-serif" font-size="14" lengthAdjust="spacing" textLength="242.0264" x="5061.9396" y="337.6242">THE_FIRM_OPERATING_MODEL.md</text></g><?plantuml-src VLRDRXit4BxlKmmIe8VMIgn_muS2iYmbHfn8LTJw8i2WkBChGYkI8RcIVUj3z0dx91sIAtdbTUE3HOdVpFTn_aWdN86mt21CXTd1lt__0m_ARBD27M2-OHRj1NnYpdymcSB8E94nxc1AWAJ0p85JO4I-SP0AWzm99HEx5L8pmtQmPdoR6rNATAmAPU2m4Gvh-tR3KdKGCeUC5RQ-eycIvVZTFPC-xvZ9lAW3KinOMRWbFhbH8NAvG-c0qpyqDTJ867M8tEzxD_t-e5lRN1pTtYYJegbWtM6ltM-_2NjrclVJy5U3pgFgd_ixWXhUhgQZwRW6_ARScvp3sy5hL9tmTd0pwDSHmPmh8z50kvDGtdAaP8Qq9G3VLMauKgwiiDVq_LTOVfuyJkyMNnyVPeilq_lPm-DeCVvyjvoCbtyk9XzswJbgDfyiHikxRvyUlyvk9_T-d_n7bYGv9G_UXOg2ovMyauvjSILd1z9q3NEZqfAxTy0iwCkcHNibAmXCwK1KBojvB4LxlP9xOQdkY7SbTSIrraPW5dvXdACcVnpfQwHerobyUTSP5iXI8T7QWCtRJJcTbLmYtqZ1MG6tmdArH_DyBiaT0Qtq20Xgw9V2KXE0s569kvMqplE7XfEKoSYgEms5H7gYWh7QwG8TliZiD6LsoG8jjGRSAxxzNta14hKfwOm7K4JHY8psVJ_3ZcaTOdvWUmHTC1b5TXiYpocZicvJMS_32X6ECYTtif7HjDfkUROW3f-Gbq6ELq4IKUQK9j99qsD3mqbbMPJLQyYgyxrARw-fha_rwSFh9qeCm4Dah0laAaKVHkkZ9SxXjJps6rh8-nyZc52adwE2VbF1861-WRzgMJYd_y5QT9fKS7UiUitoo5xzJh8cdKdKifA6ifAMLAv6s6rTuA0XaCZhlATQYse7JRN3bLnWWNvv2YvyX76XR6dmNBU9m9Ov0cFXHQYVypJ8AcN3XZ8YcWf9XwXSHqN3fg8hhyWPPRM_aVOD3RHrcWLNIQ8leTNwtOy5tGuhQleyhdG7ha5ay394G53MwQh19q6vJmWGB3f97bUw6or8816Y3VScTPQbrY9J-au7tKfra0b1WsqtoUDAzwBjgH7XDpZhH6zRK6TXcX0s6FUIFAvqFng7zhW0vKShVQQeQGoZv08ZDpxfGd3X4Z887lf97bTw43rGxOame45GW9IrOarNB-q6-239uqeF8nptmliFQ5jc95PGW1BQ3lXXaiULlgfELsNREpUAGcHRUrO8kYfyNS9QEQTse38_O02gULAz1-Z5eCeY9NsyA5E4SG_s0W_sWf0MVvHUnySmKbjXfAQ2vNHZK1n6jukM3Q-957cuBuAHpoOXGdJN_fvaT75KhvstXk07VxM51chA7P2_UQqJlG_VWto3V1k3RqWZlPDIUWcX9BYZbnUdwKKdOrc6FkNq9lA0U2_GVSwDSE6cyGUoF-6dICEnDOv4zfHkg5hF5rSM4-RFJn1Lx8cFc6AHqteTQinKOM37HryXfC_1YuJ_0000?></g></svg>