<?plantuml 1.2026.1?><svg xmlns="http://www.w3.org/2000/svg" xmlns:xlink="http://www.w3.org/1999/xlink" contentStyleType="text/css" data-diagram-type="DESCRIPTION" height="1033px" preserveAspectRatio="none" style="width:1179px;height:1033px;background:#FFFFFF;" version="1.1" viewBox="0 0 1179 1033" width="1179px" zoomAndPan="magnify"><title>The Firm &#8212; Councils, Escalation Paths, and Self-Correction</title><defs/><g><g class="title" data-source-line="2"><text fill="#000000" font-family="sans-serif" font-size="14" font-weight="bold" lengthAdjust="spacing" textLength="463.627" x="350.7582" y="22.9951">The Firm &#8212; Councils, Escalation Paths, and Self-Correction</text></g><!--cluster Escalation sources--><g class="cluster" data-qualified-name="Escalation sources" data-source-line="23" id="ent0002"><rect fill="#F8FAFC" height="561" rx="6" ry="6" style="stroke:#374151;stroke-width:1;" width="254.99" x="7" y="131.5569"/><text fill="#000000" font-family="sans-serif" font-size="14" font-weight="bold" lengthAdjust="spacing" textLength="146.7881" x="61.101" y="146.552">Escalation sources</text></g><!--cluster Office leads--><g class="cluster" data-qualified-name="Office leads" data-source-line="30" id="ent0007"><rect fill="#F8FAFC" height="584" rx="6" ry="6" style="stroke:#374151;stroke-width:1;" width="210.99" x="523.5" y="46.5569"/><text fill="#000000" font-family="sans-serif" font-size="14" font-weight="bold" lengthAdjust="spacing" textLength="93.6455" x="582.1722" y="61.552">Office leads</text></g><!--cluster Councils--><g class="cluster" data-qualified-name="Councils" data-source-line="41" id="ent0016"><rect fill="#F8FAFC" height="497" rx="6" ry="6" style="stroke:#374151;stroke-width:1;" width="300.54" x="857.3" y="220.5569"/><text fill="#000000" font-family="sans-serif" font-size="14" font-weight="bold" lengthAdjust="spacing" textLength="66.0557" x="974.5422" y="235.552">Councils</text></g><!--entity task_level--><g class="entity" data-qualified-name="Escalation sources.task_level" data-source-line="24" id="ent0003"><rect fill="#FFFFFF" height="101.4844" rx="6" ry="6" style="stroke:#374151;stroke-width:0.5;" width="193.3252" x="37.83" y="166.8169"/><text fill="#000000" font-family="sans-serif" font-size="14" lengthAdjust="spacing" textLength="146.2275" x="61.3788" y="189.812">Task-level correction</text><text fill="#000000" font-family="sans-serif" font-size="14" lengthAdjust="spacing" textLength="173.3252" x="47.83" y="206.1089">local execution mistakes</text><text fill="#000000" font-family="sans-serif" font-size="14" lengthAdjust="spacing" textLength="98.9023" x="85.0414" y="222.4057">weak artifacts</text><text fill="#000000" font-family="sans-serif" font-size="14" lengthAdjust="spacing" textLength="91.7314" x="88.6269" y="238.7026">bad handoffs</text><text fill="#000000" font-family="sans-serif" font-size="14" lengthAdjust="spacing" textLength="121.6865" x="73.6493" y="254.9995">missing evidence</text></g><!--entity workflow_level--><g class="entity" data-qualified-name="Escalation sources.workflow_level" data-source-line="25" id="ent0004"><rect fill="#FFFFFF" height="101.4844" rx="6" ry="6" style="stroke:#374151;stroke-width:0.5;" width="198.8008" x="35.1" y="302.8169"/><text fill="#000000" font-family="sans-serif" font-size="14" lengthAdjust="spacing" textLength="178.8008" x="45.1" y="325.812">Workflow-level correction</text><text fill="#000000" font-family="sans-serif" font-size="14" lengthAdjust="spacing" textLength="95.7852" x="86.6078" y="342.1089">phase friction</text><text fill="#000000" font-family="sans-serif" font-size="14" lengthAdjust="spacing" textLength="116.7236" x="76.1386" y="358.4057">poor sequencing</text><text fill="#000000" font-family="sans-serif" font-size="14" lengthAdjust="spacing" textLength="126.54" x="71.2304" y="374.7026">handoff instability</text><text fill="#000000" font-family="sans-serif" font-size="14" lengthAdjust="spacing" textLength="126.417" x="71.2919" y="390.9995">staffing mismatch</text></g><!--entity engagement_level--><g class="entity" data-qualified-name="Escalation sources.engagement_level" data-source-line="26" id="ent0005"><rect fill="#FFFFFF" height="101.4844" rx="6" ry="6" style="stroke:#374151;stroke-width:0.5;" width="222.9932" x="23" y="574.8169"/><text fill="#000000" font-family="sans-serif" font-size="14" lengthAdjust="spacing" textLength="202.9932" x="33" y="597.812">Engagement-level correction</text><text fill="#000000" font-family="sans-serif" font-size="14" lengthAdjust="spacing" textLength="87.6846" x="90.6543" y="614.1089">wrong mode</text><text fill="#000000" font-family="sans-serif" font-size="14" lengthAdjust="spacing" textLength="118.1455" x="75.4238" y="630.4057">mis-scoped work</text><text fill="#000000" font-family="sans-serif" font-size="14" lengthAdjust="spacing" textLength="171.6914" x="48.6509" y="646.7026">changed client objective</text><text fill="#000000" font-family="sans-serif" font-size="14" lengthAdjust="spacing" textLength="196.7383" x="36.1274" y="662.9995">invalid staffing assumptions</text></g><!--entity governance_level--><g class="entity" data-qualified-name="Escalation sources.governance_level" data-source-line="27" id="ent0006"><rect fill="#FFFFFF" height="101.4844" rx="6" ry="6" style="stroke:#374151;stroke-width:0.5;" width="218.3994" x="25.3" y="438.8169"/><text fill="#000000" font-family="sans-serif" font-size="14" lengthAdjust="spacing" textLength="198.3994" x="35.3" y="461.812">Governance-level correction</text><text fill="#000000" font-family="sans-serif" font-size="14" lengthAdjust="spacing" textLength="95.8672" x="86.5661" y="478.1089">doctrine gaps</text><text fill="#000000" font-family="sans-serif" font-size="14" lengthAdjust="spacing" textLength="123.9697" x="72.5148" y="494.4057">structural failures</text><text fill="#000000" font-family="sans-serif" font-size="14" lengthAdjust="spacing" textLength="87.3564" x="90.8215" y="510.7026">bad defaults</text><text fill="#000000" font-family="sans-serif" font-size="14" lengthAdjust="spacing" textLength="177.8643" x="45.5676" y="526.9995">unstable council patterns</text></g><!--entity product_lead--><g class="entity" data-qualified-name="Office leads.product_lead" data-source-line="31" id="ent0008"><rect fill="#FFFFFF" height="36.2969" rx="6" ry="6" style="stroke:#374151;stroke-width:0.5;" width="111.123" x="573.43" y="436.4169"/><text fill="#000000" font-family="sans-serif" font-size="14" lengthAdjust="spacing" textLength="91.123" x="583.43" y="459.412">product_lead</text></g><!--entity architecture_lead--><g class="entity" data-qualified-name="Office leads.architecture_lead" data-source-line="32" id="ent0009"><rect fill="#FFFFFF" height="36.2969" rx="6" ry="6" style="stroke:#374151;stroke-width:0.5;" width="142.2949" x="557.85" y="294.4169"/><text fill="#000000" font-family="sans-serif" font-size="14" lengthAdjust="spacing" textLength="122.2949" x="567.85" y="317.412">architecture_lead</text></g><!--entity engineering_lead--><g class="entity" data-qualified-name="Office leads.engineering_lead" data-source-line="33" id="ent0010"><rect fill="#FFFFFF" height="36.2969" rx="6" ry="6" style="stroke:#374151;stroke-width:0.5;" width="140.7363" x="558.62" y="81.4169"/><text fill="#000000" font-family="sans-serif" font-size="14" lengthAdjust="spacing" textLength="120.7363" x="568.62" y="104.412">engineering_lead</text></g><!--entity qa_lead--><g class="entity" data-qualified-name="Office leads.qa_lead" data-source-line="34" id="ent0011"><rect fill="#FFFFFF" height="36.2969" rx="6" ry="6" style="stroke:#374151;stroke-width:0.5;" width="74.4346" x="591.78" y="152.4169"/><text fill="#000000" font-family="sans-serif" font-size="14" lengthAdjust="spacing" textLength="54.4346" x="601.78" y="175.412">qa_lead</text></g><!--entity workflow_governor--><g class="entity" data-qualified-name="Office leads.workflow_governor" data-source-line="35" id="ent0012"><rect fill="#FFFFFF" height="36.2969" rx="6" ry="6" style="stroke:#374151;stroke-width:0.5;" width="153.0137" x="552.49" y="223.4169"/><text fill="#000000" font-family="sans-serif" font-size="14" lengthAdjust="spacing" textLength="133.0137" x="562.49" y="246.412">workflow_governor</text></g><!--entity client_partner--><g class="entity" data-qualified-name="Office leads.client_partner" data-source-line="36" id="ent0013"><rect fill="#FFFFFF" height="36.2969" rx="6" ry="6" style="stroke:#374151;stroke-width:0.5;" width="117.4053" x="570.29" y="507.4169"/><text fill="#000000" font-family="sans-serif" font-size="14" lengthAdjust="spacing" textLength="97.4053" x="580.29" y="530.412">client_partner</text></g><!--entity engagement_manager--><g class="entity" data-qualified-name="Office leads.engagement_manager" data-source-line="37" id="ent0014"><rect fill="#FFFFFF" height="36.2969" rx="6" ry="6" style="stroke:#374151;stroke-width:0.5;" width="178.9902" x="539.5" y="578.4169"/><text fill="#000000" font-family="sans-serif" font-size="14" lengthAdjust="spacing" textLength="158.9902" x="549.5" y="601.412">engagement_manager</text></g><!--entity firm_director--><g class="entity" data-qualified-name="Office leads.firm_director" data-source-line="38" id="ent0015"><rect fill="#FFFFFF" height="36.2969" rx="6" ry="6" style="stroke:#374151;stroke-width:0.5;" width="109.8652" x="574.06" y="365.4169"/><text fill="#000000" font-family="sans-serif" font-size="14" lengthAdjust="spacing" textLength="89.8652" x="584.06" y="388.412">firm_director</text></g><!--entity architecture_council--><g class="entity" data-qualified-name="Councils.architecture_council" data-source-line="42" id="ent0017"><rect fill="#FFFFFF" height="85.1875" rx="6" ry="6" style="stroke:#374151;stroke-width:0.5;" width="268.541" x="873.3" y="375.9669"/><text fill="#000000" font-family="sans-serif" font-size="14" lengthAdjust="spacing" textLength="141.8115" x="936.6647" y="398.962">architecture_council</text><text fill="#000000" font-family="sans-serif" font-size="14" lengthAdjust="spacing" textLength="112.0137" x="951.5637" y="415.2589">Design disputes</text><text fill="#000000" font-family="sans-serif" font-size="14" lengthAdjust="spacing" textLength="177.9326" x="918.6042" y="431.5557">Cross-boundary tradeoffs</text><text fill="#000000" font-family="sans-serif" font-size="14" lengthAdjust="spacing" textLength="248.541" x="883.3" y="447.8526">Repeated design-package rejection</text></g><!--entity quality_council--><g class="entity" data-qualified-name="Councils.quality_council" data-source-line="43" id="ent0018"><rect fill="#FFFFFF" height="85.1875" rx="6" ry="6" style="stroke:#374151;stroke-width:0.5;" width="219.2949" x="897.92" y="255.9669"/><text fill="#000000" font-family="sans-serif" font-size="14" lengthAdjust="spacing" textLength="104.3779" x="955.3785" y="278.962">quality_council</text><text fill="#000000" font-family="sans-serif" font-size="14" lengthAdjust="spacing" textLength="99.9346" x="957.6002" y="295.2589">Proof disputes</text><text fill="#000000" font-family="sans-serif" font-size="14" lengthAdjust="spacing" textLength="199.2949" x="907.92" y="311.5557">Repeated verification failure</text><text fill="#000000" font-family="sans-serif" font-size="14" lengthAdjust="spacing" textLength="159.3047" x="927.9151" y="327.8526">Residual-risk decisions</text></g><!--entity engagement_council--><g class="entity" data-qualified-name="Councils.engagement_council" data-source-line="44" id="ent0019"><rect fill="#FFFFFF" height="85.1875" rx="6" ry="6" style="stroke:#374151;stroke-width:0.5;" width="190.167" x="912.49" y="615.9669"/><text fill="#000000" font-family="sans-serif" font-size="14" lengthAdjust="spacing" textLength="145.5508" x="934.7981" y="638.962">engagement_council</text><text fill="#000000" font-family="sans-serif" font-size="14" lengthAdjust="spacing" textLength="158.5938" x="928.2766" y="655.2589">Scope/tradeoff conflict</text><text fill="#000000" font-family="sans-serif" font-size="14" lengthAdjust="spacing" textLength="152.8174" x="931.1648" y="671.5557">Major change request</text><text fill="#000000" font-family="sans-serif" font-size="14" lengthAdjust="spacing" textLength="170.167" x="922.49" y="687.8526">Material staffing change</text></g><!--entity firm_council--><g class="entity" data-qualified-name="Councils.firm_council" data-source-line="45" id="ent0020"><rect fill="#FFFFFF" height="85.1875" rx="6" ry="6" style="stroke:#374151;stroke-width:0.5;" width="242.2637" x="886.44" y="495.9669"/><text fill="#000000" font-family="sans-serif" font-size="14" lengthAdjust="spacing" textLength="84.6973" x="965.2232" y="518.962">firm_council</text><text fill="#000000" font-family="sans-serif" font-size="14" lengthAdjust="spacing" textLength="140.3213" x="937.4112" y="535.2589">Doctrine exceptions</text><text fill="#000000" font-family="sans-serif" font-size="14" lengthAdjust="spacing" textLength="222.2637" x="896.44" y="551.5557">Cross-engagement breakdowns</text><text fill="#000000" font-family="sans-serif" font-size="14" lengthAdjust="spacing" textLength="218.9209" x="898.1114" y="567.8526">High-risk governance decisions</text></g><g class="entity" data-qualified-name="GMN49" data-source-line="85" id="ent0050"><path d="M846.33,49.2969 L846.33,107.8281 A6,6 0 0 0 852.33,113.8281 L1162.8119,113.8281 A6,6 0 0 0 1168.8119,107.8281 L1168.8119,53.2969 L1158.8119,43.2969 L852.33,43.2969 A6,6 0 0 0 846.33,49.2969" fill="#FFF7D6" style="stroke:#D6B656;stroke-width:0.5;"/><path d="M1158.8119,43.2969 L1158.8119,50.2969 A3,3 0 0 0 1161.8119,53.2969 L1168.8119,53.2969 L1158.8119,43.2969" fill="#FFF7D6" style="stroke:#D6B656;stroke-width:1;"/><text fill="#000000" font-family="sans-serif" font-size="13" lengthAdjust="spacing" textLength="118.2124" x="943.9648" y="60.3638">Trigger examples:</text><text fill="#000000" font-family="sans-serif" font-size="13" lengthAdjust="spacing" textLength="229.2964" x="888.4228" y="75.4966">repeated reopen on high-risk work,</text><text fill="#000000" font-family="sans-serif" font-size="13" lengthAdjust="spacing" textLength="247.3237" x="879.4091" y="90.6294">unresolved proof sufficiency disputes,</text><text fill="#000000" font-family="sans-serif" font-size="13" lengthAdjust="spacing" textLength="301.4819" x="852.33" y="105.7622">release with unresolved material residual risk.</text></g><g class="entity" data-qualified-name="GMN52" data-source-line="92" id="ent0053"><path d="M842.99,154.8569 L842.99,198.2553 A6,6 0 0 0 848.99,204.2553 L1166.1433,204.2553 A6,6 0 0 0 1172.1433,198.2553 L1172.1433,158.8569 L1162.1433,148.8569 L848.99,148.8569 A6,6 0 0 0 842.99,154.8569" fill="#FFF7D6" style="stroke:#D6B656;stroke-width:0.5;"/><path d="M1162.1433,148.8569 L1162.1433,155.8569 A3,3 0 0 0 1165.1433,158.8569 L1172.1433,158.8569 L1162.1433,148.8569" fill="#FFF7D6" style="stroke:#D6B656;stroke-width:1;"/><text fill="#000000" font-family="sans-serif" font-size="13" lengthAdjust="spacing" textLength="187.2305" x="909.4514" y="165.9238">Council mode is exceptional.</text><text fill="#000000" font-family="sans-serif" font-size="13" lengthAdjust="spacing" textLength="308.1533" x="848.99" y="181.0566">If ordinary work requires councils continuously,</text><text fill="#000000" font-family="sans-serif" font-size="13" lengthAdjust="spacing" textLength="210.3486" x="897.8923" y="196.1894">ownership or doctrine is broken.</text></g><!--link task_level to architecture_lead--><g class="link" data-entity-1="ent0003" data-entity-2="ent0009" data-link-type="dependency" data-source-line="48" id="lnk21"><path d="M231.57,248.6269 C247,253.0069 262.86,257.1769 277.99,260.5569 C373.76,282.0069 480.3394,296.2501 551.4194,304.4401" fill="none" id="task_level-to-architecture_lead" style="stroke:#4B5563;stroke-width:1;"/><polygon fill="#4B5563" points="557.38,305.1269,548.897,300.123,552.4129,304.5546,547.9813,308.0704,557.38,305.1269" style="stroke:#4B5563;stroke-width:1;"/><text fill="#000000" font-family="sans-serif" font-size="13" lengthAdjust="spacing" textLength="122.2686" x="300.99" y="256.6238">if design truth fails</text></g><!--link task_level to engineering_lead--><g class="link" data-entity-1="ent0003" data-entity-2="ent0010" data-link-type="dependency" data-source-line="49" id="lnk22"><path d="M231.29,178.5569 C246.75,173.0469 262.7,167.8169 277.99,163.5569 C373.65,136.9269 481.2385,119.3426 552.4785,109.3226" fill="none" id="task_level-to-engineering_lead" style="stroke:#4B5563;stroke-width:1;"/><polygon fill="#4B5563" points="558.42,108.4869,548.9506,105.7794,553.4687,109.1833,550.0648,113.7014,558.42,108.4869" style="stroke:#4B5563;stroke-width:1;"/><text fill="#000000" font-family="sans-serif" font-size="13" lengthAdjust="spacing" textLength="131.3457" x="296.49" y="123.6238">if delivery truth fails</text></g><!--link task_level to qa_lead--><g class="link" data-entity-1="ent0003" data-entity-2="ent0011" data-link-type="dependency" data-source-line="50" id="lnk23"><path d="M231.62,208.3869 C341.64,197.8869 510.3171,181.7868 585.5671,174.6068" fill="none" id="task_level-to-qa_lead" style="stroke:#4B5563;stroke-width:1;"/><polygon fill="#4B5563" points="591.54,174.0369,582.2008,170.9098,586.5626,174.5118,582.9606,178.8736,591.54,174.0369" style="stroke:#4B5563;stroke-width:1;"/><text fill="#000000" font-family="sans-serif" font-size="13" lengthAdjust="spacing" textLength="138.0806" x="292.99" y="184.6238">if evidence truth fails</text></g><!--link task_level to workflow_governor--><g class="link" data-entity-1="ent0003" data-entity-2="ent0012" data-link-type="dependency" data-source-line="51" id="lnk24"><path d="M231.28,224.6769 C246.89,225.7269 262.89,226.7269 277.99,227.5569 C372.41,232.7569 475.2634,236.6056 546.1834,238.9856" fill="none" id="task_level-to-workflow_governor" style="stroke:#4B5563;stroke-width:1;"/><polygon fill="#4B5563" points="552.18,239.1869,543.3192,234.8873,547.1828,239.0192,543.0509,242.8828,552.18,239.1869" style="stroke:#4B5563;stroke-width:1;"/><text fill="#000000" font-family="sans-serif" font-size="13" lengthAdjust="spacing" textLength="166.2578" x="278.99" y="223.6238">if handoff/state truth fails</text></g><!--link workflow_level to workflow_governor--><g class="link" data-entity-1="ent0004" data-entity-2="ent0012" data-link-type="dependency" data-source-line="53" id="lnk25"><path d="M234.17,317.4469 C248.76,312.7469 263.69,308.2869 277.99,304.5569 C371.2,280.2969 474.8429,263.0734 546.2329,252.6534" fill="none" id="workflow_level-to-workflow_governor" style="stroke:#4B5563;stroke-width:1;"/><polygon fill="#4B5563" points="552.17,251.7869,542.6866,249.1287,547.2224,252.509,543.8421,257.0448,552.17,251.7869" style="stroke:#4B5563;stroke-width:1;"/></g><!--link workflow_level to architecture_council--><g class="link" data-entity-1="ent0004" data-entity-2="ent0017" data-link-type="dependency" data-source-line="54" id="lnk26"><path d="M234.07,387.3569 C248.24,396.3369 261.03,407.5669 269.99,421.5569 C283.01,441.8769 264.56,618.5169 277.99,638.5569 C331.81,718.8569 381.52,708.0969 475.99,728.5569 C608.91,757.3569 675.03,812.5569 781.99,728.5569 C871.94,657.9169 766.78,563.8469 842.99,478.5569 C851.56,468.9769 856.6663,464.039 867.7763,457.269" fill="none" id="workflow_level-to-architecture_council" style="stroke:#4B5563;stroke-width:1;"/><polygon fill="#4B5563" points="872.9,454.1469,863.133,455.4143,868.6303,456.7487,867.2959,462.2459,872.9,454.1469" style="stroke:#4B5563;stroke-width:1;"/><text fill="#000000" font-family="sans-serif" font-size="13" lengthAdjust="spacing" textLength="185.6436" x="536.49" y="724.6238">if cross-office design conflict</text></g><!--link workflow_level to quality_council--><g class="link" data-entity-1="ent0004" data-entity-2="ent0018" data-link-type="dependency" data-source-line="55" id="lnk27"><path d="M234.26,398.1969 C246.72,405.3369 258.95,413.1669 269.99,421.5569 C378.2,503.7969 351.67,592.6569 475.99,647.5569 C600.4,702.4969 680.4,737.9769 781.99,647.5569 C824.94,609.3369 787.35,442.5169 811.99,390.5569 C828.29,356.2069 856.7705,336.7822 891.9205,323.2522" fill="none" id="workflow_level-to-quality_council" style="stroke:#4B5563;stroke-width:1;"/><polygon fill="#4B5563" points="897.52,321.0969,887.6838,320.5969,892.8538,322.893,890.5577,328.0629,897.52,321.0969" style="stroke:#4B5563;stroke-width:1;"/><text fill="#000000" font-family="sans-serif" font-size="13" lengthAdjust="spacing" textLength="168.27" x="544.99" y="643.6238">if QA/reopen loop persists</text></g><!--link engagement_level to client_partner--><g class="link" data-entity-1="ent0005" data-entity-2="ent0013" data-link-type="dependency" data-source-line="57" id="lnk28"><path d="M246.48,594.0969 C257.1,591.4169 267.73,588.8569 277.99,586.5569 C380.02,563.7569 494.4466,545.2983 564.1366,534.8283" fill="none" id="engagement_level-to-client_partner" style="stroke:#4B5563;stroke-width:1;"/><polygon fill="#4B5563" points="570.07,533.9369,560.5756,531.3184,565.1255,534.6797,561.7642,539.2296,570.07,533.9369" style="stroke:#4B5563;stroke-width:1;"/></g><!--link engagement_level to engagement_manager--><g class="link" data-entity-1="ent0005" data-entity-2="ent0014" data-link-type="dependency" data-source-line="58" id="lnk29"><path d="M246.33,619.0369 C334.83,613.8269 451.2104,606.9693 533.3004,602.1393" fill="none" id="engagement_level-to-engagement_manager" style="stroke:#4B5563;stroke-width:1;"/><polygon fill="#4B5563" points="539.29,601.7869,530.0706,598.3224,534.2986,602.0806,530.5405,606.3086,539.29,601.7869" style="stroke:#4B5563;stroke-width:1;"/></g><!--link engagement_level to engagement_council--><g class="link" data-entity-1="ent0005" data-entity-2="ent0019" data-link-type="dependency" data-source-line="59" id="lnk30"><path d="M150.04,676.7269 C169.21,733.8669 208.89,824.0369 277.99,867.5569 C352.73,914.6369 387.75,880.7769 475.99,884.5569 C611.87,890.3869 656.35,936.6069 781.99,884.5569 C871.17,847.6269 939.7672,761.0127 976.5372,706.4427" fill="none" id="engagement_level-to-engagement_council" style="stroke:#4B5563;stroke-width:1;"/><polygon fill="#4B5563" points="979.89,701.4669,971.5436,706.6954,977.096,705.6134,978.178,711.1658,979.89,701.4669" style="stroke:#4B5563;stroke-width:1;"/><text fill="#000000" font-family="sans-serif" font-size="13" lengthAdjust="spacing" textLength="304.624" x="476.99" y="880.6238">if delivery mode or staffing changes materially</text></g><!--link governance_level to firm_director--><g class="link" data-entity-1="ent0006" data-entity-2="ent0015" data-link-type="dependency" data-source-line="61" id="lnk31"><path d="M244.19,466.1669 C346.16,444.2169 488.6143,413.5593 567.6943,396.5393" fill="none" id="governance_level-to-firm_director" style="stroke:#4B5563;stroke-width:1;"/><polygon fill="#4B5563" points="573.56,395.2769,563.9198,393.2601,568.6719,396.3289,565.6031,401.081,573.56,395.2769" style="stroke:#4B5563;stroke-width:1;"/></g><!--link governance_level to firm_council--><g class="link" data-entity-1="ent0006" data-entity-2="ent0020" data-link-type="dependency" data-source-line="62" id="lnk32"><path d="M244.17,530.3369 C254.26,537.9769 263.22,546.9869 269.99,557.5569 C283.3,578.3469 260.98,761.6769 277.99,779.5569 C338.88,843.5469 387.75,792.7769 475.99,796.5569 C611.87,802.3869 672.58,877.3369 781.99,796.5569 C856.07,741.8669 779.62,665.3669 842.99,598.5569 C855.07,585.8369 864.6941,578.4613 880.6741,570.5413" fill="none" id="governance_level-to-firm_council" style="stroke:#4B5563;stroke-width:1;"/><polygon fill="#4B5563" points="886.05,567.8769,876.2098,568.2895,881.57,570.0972,879.7624,575.4575,886.05,567.8769" style="stroke:#4B5563;stroke-width:1;"/></g><!--link architecture_lead to architecture_council--><g class="link" data-entity-1="ent0009" data-entity-2="ent0017" data-link-type="dependency" data-source-line="64" id="lnk33"><path d="M700.28,327.5169 C726.09,333.3269 755.48,340.3269 781.99,347.5569 C812.76,355.9569 839.9045,364.0329 870.7345,373.6929" fill="none" id="architecture_lead-to-architecture_council" style="stroke:#4B5563;stroke-width:1;"/><polygon fill="#4B5563" points="876.46,375.4869,869.0677,368.9789,871.6887,373.9919,866.6757,376.6129,876.46,375.4869" style="stroke:#4B5563;stroke-width:1;"/></g><!--link engineering_lead to architecture_council--><g class="link" data-entity-1="ent0010" data-entity-2="ent0017" data-link-type="dependency" data-source-line="65" id="lnk34"><path d="M699.8,100.4269 C728.58,104.2969 760.23,113.6369 781.99,134.5569 C856.38,206.0669 773.23,282.5469 842.99,358.5569 C851.69,368.0369 856.8599,372.9218 868.0199,379.6418" fill="none" id="engineering_lead-to-architecture_council" style="stroke:#4B5563;stroke-width:1;"/><polygon fill="#4B5563" points="873.16,382.7369,867.5133,374.6675,868.8766,380.1576,863.3865,381.5209,873.16,382.7369" style="stroke:#4B5563;stroke-width:1;"/></g><!--link qa_lead to architecture_council--><g class="link" data-entity-1="ent0011" data-entity-2="ent0017" data-link-type="dependency" data-source-line="66" id="lnk35"><path d="M666.48,169.0469 C700.71,169.6569 751.13,176.1169 781.99,205.5569 C817.73,239.6569 791.26,267.7369 811.99,312.5569 C822.34,334.9369 823.59,343.3569 842.99,358.5569 C852.16,365.7469 856.9796,369.2963 867.5396,374.9463" fill="none" id="qa_lead-to-architecture_council" style="stroke:#4B5563;stroke-width:1;"/><polygon fill="#4B5563" points="872.83,377.7769,866.7815,370.0041,868.4214,375.4181,863.0074,377.058,872.83,377.7769" style="stroke:#4B5563;stroke-width:1;"/></g><!--link qa_lead to quality_council--><g class="link" data-entity-1="ent0011" data-entity-2="ent0018" data-link-type="dependency" data-source-line="68" id="lnk36"><path d="M666.42,175.2969 C703.84,180.7669 763.45,191.1669 812.99,207.5569 C813.72,207.8069 859.9314,229.5214 909.6814,252.9414" fill="none" id="qa_lead-to-quality_council" style="stroke:#4B5563;stroke-width:1;"/><polygon fill="#4B5563" points="915.11,255.4969,908.6708,248.0446,910.5862,253.3673,905.2635,255.2826,915.11,255.4969" style="stroke:#4B5563;stroke-width:1;"/></g><!--link engineering_lead to quality_council--><g class="link" data-entity-1="ent0010" data-entity-2="ent0018" data-link-type="dependency" data-source-line="69" id="lnk37"><path d="M699.72,104.8069 C727.18,109.5169 757.85,118.2969 781.99,134.5569 C821.16,160.9469 806.86,191.1469 842.99,221.5569 C859.2,235.2069 872.9139,244.2442 892.1539,254.2242" fill="none" id="engineering_lead-to-quality_council" style="stroke:#4B5563;stroke-width:1;"/><polygon fill="#4B5563" points="897.48,256.9869,891.3326,249.2921,893.0416,254.6846,887.649,256.3935,897.48,256.9869" style="stroke:#4B5563;stroke-width:1;"/></g><!--link workflow_governor to quality_council--><g class="link" data-entity-1="ent0012" data-entity-2="ent0018" data-link-type="dependency" data-source-line="70" id="lnk38"><path d="M705.64,231.3269 C738.77,228.6269 778,227.8469 812.99,233.5569 C841.42,238.2069 865.6021,244.5669 893.1521,253.6569" fill="none" id="workflow_governor-to-quality_council" style="stroke:#4B5563;stroke-width:1;"/><polygon fill="#4B5563" points="898.85,255.5369,891.5565,248.9183,894.1018,253.9702,889.0499,256.5155,898.85,255.5369" style="stroke:#4B5563;stroke-width:1;"/></g><!--link client_partner to engagement_council--><g class="link" data-entity-1="ent0013" data-entity-2="ent0019" data-link-type="dependency" data-source-line="72" id="lnk39"><path d="M687.84,523.6969 C720.2,525.9269 758.61,534.6069 781.99,560.5569 C855.13,641.7269 730.16,732.1669 811.99,804.5569 C869.41,855.3469 939.9801,765.7869 978.0701,706.4169" fill="none" id="client_partner-to-engagement_council" style="stroke:#4B5563;stroke-width:1;"/><polygon fill="#4B5563" points="981.31,701.3669,973.0834,706.782,978.61,705.5752,979.8168,711.1019,981.31,701.3669" style="stroke:#4B5563;stroke-width:1;"/></g><!--link engagement_manager to engagement_council--><g class="link" data-entity-1="ent0014" data-entity-2="ent0019" data-link-type="dependency" data-source-line="73" id="lnk40"><path d="M718.77,605.2969 C742.42,611.8569 765.85,622.9569 781.99,641.5569 C842.04,710.7869 742.64,785.6569 811.99,845.5569 C879.19,903.5969 950.9425,778.665 985.0225,707.025" fill="none" id="engagement_manager-to-engagement_council" style="stroke:#4B5563;stroke-width:1;"/><polygon fill="#4B5563" points="987.6,701.6069,980.1217,708.0158,985.4521,706.122,987.3459,711.4525,987.6,701.6069" style="stroke:#4B5563;stroke-width:1;"/></g><!--link product_lead to engagement_council--><g class="link" data-entity-1="ent0008" data-entity-2="ent0019" data-link-type="dependency" data-source-line="74" id="lnk41"><path d="M684.97,452.3969 C717.97,454.2469 758.06,462.6469 781.99,489.5569 C822.69,535.3369 766.38,722.6769 811.99,763.5569 C860.44,806.9869 925.9906,751.3134 967.4906,705.7334" fill="none" id="product_lead-to-engagement_council" style="stroke:#4B5563;stroke-width:1;"/><polygon fill="#4B5563" points="971.53,701.2969,962.5132,705.2588,968.1638,704.994,968.4286,710.6447,971.53,701.2969" style="stroke:#4B5563;stroke-width:1;"/></g><!--link architecture_lead to engagement_council--><g class="link" data-entity-1="ent0009" data-entity-2="ent0019" data-link-type="dependency" data-source-line="75" id="lnk42"><path d="M700.36,312.0269 C729.6,315.5869 761.44,325.0669 781.99,347.5569 C848.26,420.0869 769.01,478.2169 811.99,566.5569 C830.88,605.3669 866.6277,626.0205 906.4377,639.0505" fill="none" id="architecture_lead-to-engagement_council" style="stroke:#4B5563;stroke-width:1;"/><polygon fill="#4B5563" points="912.14,640.9169,904.8308,634.3157,907.3881,639.3615,902.3422,641.9188,912.14,640.9169" style="stroke:#4B5563;stroke-width:1;"/></g><!--link firm_director to firm_council--><g class="link" data-entity-1="ent0015" data-entity-2="ent0020" data-link-type="dependency" data-source-line="77" id="lnk43"><path d="M684.09,381.8369 C716.96,383.8269 757.24,392.2169 781.99,418.5569 C837.84,477.9769 749.8,546.8269 811.99,599.5569 C819.42,605.8569 850.7254,597.4549 890.4754,583.5749" fill="none" id="firm_director-to-firm_council" style="stroke:#4B5563;stroke-width:1;"/><polygon fill="#4B5563" points="896.14,581.5969,886.3245,580.7874,891.4195,583.2452,888.9618,588.3402,896.14,581.5969" style="stroke:#4B5563;stroke-width:1;"/></g><!--link workflow_governor to firm_council--><g class="link" data-entity-1="ent0012" data-entity-2="ent0020" data-link-type="dependency" data-source-line="78" id="lnk44"><path d="M705.98,241.6369 C733.67,245.6769 762.85,255.3469 781.99,276.5569 C854.31,356.6969 735.05,441.8669 811.99,517.5569 C831.73,536.9769 852.6678,545.4112 880.1578,548.9012" fill="none" id="workflow_governor-to-firm_council" style="stroke:#4B5563;stroke-width:1;"/><polygon fill="#4B5563" points="886.11,549.6569,877.6854,544.5552,881.1498,549.0272,876.6779,552.4915,886.11,549.6569" style="stroke:#4B5563;stroke-width:1;"/></g><!--link product_lead to firm_council--><g class="link" data-entity-1="ent0008" data-entity-2="ent0020" data-link-type="dependency" data-source-line="79" id="lnk45"><path d="M684.91,453.1869 C717.47,455.4069 757.1,463.9069 781.99,489.5569 C829.64,538.6669 759.11,597.1469 811.99,640.5569 C829.93,655.2769 824.54,612.6169 842.99,598.5569 C855.99,588.6569 865.3379,582.7934 880.5879,575.7134" fill="none" id="product_lead-to-firm_council" style="stroke:#4B5563;stroke-width:1;"/><polygon fill="#4B5563" points="886.03,573.1869,876.1825,573.3487,881.4949,575.2923,879.5512,580.6048,886.03,573.1869" style="stroke:#4B5563;stroke-width:1;"/></g><!--link architecture_lead to firm_council--><g class="link" data-entity-1="ent0009" data-entity-2="ent0020" data-link-type="dependency" data-source-line="80" id="lnk46"><path d="M700.31,312.0769 C729.54,315.6469 761.39,325.1269 781.99,347.5569 C846.06,417.3269 740.46,496.4769 811.99,558.5569 C832.45,576.3169 853.0546,581.4849 879.9746,579.6049" fill="none" id="architecture_lead-to-firm_council" style="stroke:#4B5563;stroke-width:1;"/><polygon fill="#4B5563" points="885.96,579.1869,876.7032,575.8236,880.9721,579.5352,877.2605,583.8042,885.96,579.1869" style="stroke:#4B5563;stroke-width:1;"/></g><!--link engineering_lead to firm_council--><g class="link" data-entity-1="ent0010" data-entity-2="ent0020" data-link-type="dependency" data-source-line="81" id="lnk47"><path d="M699.56,99.3569 C728.83,102.9669 760.91,112.3769 781.99,134.5569 C808.74,162.6969 818.06,448.8069 842.99,478.5569 C854.65,492.4769 864.4647,500.471 880.8647,508.681" fill="none" id="engineering_lead-to-firm_council" style="stroke:#4B5563;stroke-width:1;"/><polygon fill="#4B5563" points="886.23,511.3669,879.9727,503.7612,881.759,509.1286,876.3915,510.9149,886.23,511.3669" style="stroke:#4B5563;stroke-width:1;"/></g><!--link qa_lead to firm_council--><g class="link" data-entity-1="ent0011" data-entity-2="ent0020" data-link-type="dependency" data-source-line="82" id="lnk48"><path d="M666.59,167.9769 C701.66,167.6869 753.36,173.3969 781.99,205.5569 C862.57,296.0769 735.2,382.8169 811.99,476.5569 C830.75,499.4669 852.2677,512.1505 880.4377,521.3705" fill="none" id="qa_lead-to-firm_council" style="stroke:#4B5563;stroke-width:1;"/><polygon fill="#4B5563" points="886.14,523.2369,878.8307,516.6358,881.3881,521.6816,876.3422,524.2389,886.14,523.2369" style="stroke:#4B5563;stroke-width:1;"/></g><!--link quality_council to GMN49--><g class="link" data-entity-1="ent0018" data-entity-2="ent0050" data-link-type="association" data-source-line="85" id="lnk51"><path d="M897.49,271.4769 C863.9,257.3069 830.98,235.9769 812.49,204.0569 C800.24,182.9069 800.24,170.2169 812.49,149.0569 C820.8,134.7269 832.41,123.2669 845.88,114.1169" fill="none" id="quality_council-GMN49" style="stroke:#4B5563;stroke-width:1;stroke-dasharray:7,7;"/></g><!--link firm_council to GMN52--><g class="link" data-entity-1="ent0020" data-entity-2="ent0053" data-link-type="association" data-source-line="92" id="lnk54"><path d="M886.05,517.8969 C856.32,506.4369 828.47,488.6569 812.49,461.0569 C789.77,421.8269 789.77,296.2869 812.49,257.0569 C826.26,233.2869 848.71,216.5269 873.57,204.7169" fill="none" id="firm_council-GMN52" style="stroke:#4B5563;stroke-width:1;stroke-dasharray:7,7;"/></g><g class="legend" data-source-line="17"><rect fill="none" height="58.8906" rx="6" ry="6" style="stroke:#000000;stroke-width:1;" width="389.623" x="763.5203" y="954.6069"/><text fill="#000000" font-family="sans-serif" font-size="14" lengthAdjust="spacing" textLength="93.502" x="911.5808" y="972.602">Source basis:</text><ellipse cx="774.0203" cy="984.7006" fill="#000000" rx="2.5" ry="2.5"/><text fill="#000000" font-family="sans-serif" font-size="14" lengthAdjust="spacing" textLength="367.623" x="780.5203" y="988.8989">THE_FIRM_GOVERNANCE_AND_COUNCIL_MODEL.md</text><ellipse cx="805.3528" cy="1000.9975" fill="#000000" rx="2.5" ry="2.5"/><text fill="#000000" font-family="sans-serif" font-size="14" lengthAdjust="spacing" textLength="304.958" x="811.8528" y="1005.1957">THE_FIRM_NORMALIZATION_DECISIONS.md</text></g><?plantuml-src XLVRRkCs47tNLn3Pjo9EaEucM-n30STsTWDix3HsMw0mOD3KI6PCargIicCK1VeH_S9-IOVKnQ8aR_CGYEIPcSEvqfPR0MIn0VB0zOxy-_S_PAHooRWmbsHY61NKSYN9CxKRtA4o9dCGoM2aj0RcZY81YILM4StJZIKnh_RDbikCQheZQygsgKQryKW9fSbXmoqqpis6nkh0PKeIAapp94D9ciBS7f6bKqnbAfg061AQ2xk0DpiKF9Kxa9Om_0UwWHfghGw5xNSVxczlxzut3bygjVTAnw1BsFkF7svkRtfXhTkyU_1_3UXpmVhx-YfGHzjF3yE7KGCuLRRNviVnNHlLD3Y-kx-xRIAyE5DQWYOtFqOOjnGmd3vi4I5pbMi662l3pITS_q0MNoQhXyUNfzNdsM-Jb-bmEfgiXjFnQZJxTJfw_BfwceqdNwzsSGYUpbwUXbyV_nWk7cVJrNWoUfpZnzpXq5nXD8hAm9ABHeuPpy1Sa3zHOnriSh6WPZiGi0T1M9rsIoaKIX9u0vPxyHqtbcx1BEK1w9PGRNb2cSNrciPaWwchaWHNY3Ckrs3FOv0CBWWrnAADbRSHslvTwMqYrA77VhQX1aYYURLMw7O3tt9KYlgNiZH9k4HYQowuFIxTPv8uyqXZHotRUFE7qamVXObCqLCkiNj87BHokbGC_c83mrG6iTUtb0mPfBXYWhkoKEjN9xP7A9TxAdXCQZRKc7oNEPt64uBQQ1-bpseFMb9qNW-bM36hkGIIqiou2-kSsLnZh1BAHQwXZ4XPkhZAlODGCIjQ3vQznG8kgQIriPBANutqcI5zp5e1DEucJgPLZBPNxjIhQcw4KAgPQqgEA9pmdTrG29s4zmIyR7gIQM-68j_e2Lb-Xu0w4ufhAntcHxKR2XK1Nc6TMwnkBn5kTNXNmTrHYP-w7VDoEnHBS4AiYlvUqWfsWhXKGwGJay2bPRoNSWm6cpSE3vFbrYN8I2jZ1clNigW-4gjf34Nvla06r8BB7oSpg4ngU2qoi1kvqamh4Zbr5NdYyAoLIXeKQaFeSOvPLZIfCeVTiU4nwXXeRhP8Xd5JLqzBzrdlrxRdhcolgrjY7SX4O5zPoYVwYbsbA6HKWit5-5qi3uuLLTTlWMY7iTU-3zh9yrMrmXk3eW5KtZyf8ckDBHLdj3lyWWEZkFIfCbltRvfmQN7ghcGm-BbRLkGJuKaPK8nrRZVUpwOjsAwjIavWK_DPSbQohBL2eEhytnFeL5mXMlRqQtIy3UMZi8VtA-a3zQLgOOpvCAYYnPNUgLAZJrChxGeblmolDM1sIIAKoaW66WUyHRxj5kzLjDf6BwQdJ_mVBc1KnykDBUA6PfZ5XkpA_1R7A6gtVwywR3pd8LKEHjsKE-Vwg9DaPv5LKfq518XsK-YrqmPrqx0F5OLXE-Fzg1kuSyZce3o7wNTf3p0AejKDJlyT0qY7Jt3QpoI0z3exG3H35UQEnASrMIjhrOxWXEWszmM-ePqpuOtkCW7--QohwL4M7uwEJTqutOql4PHBV0qfiKTOvgUFoLsnOopPiPv4bruRSiFNve5Zlsb8LOM2W68Q4QV_ohsqYQFT8H_SZ5I_zOfAvEOq1AYumkF71CipvjADOCVPJo2CewbUQkv3MYvpbHjnT4nnHc27sV3C5NRz54JLQwss84_K_WC0?></g></svg>